<svg width="213" height="176" viewBox="0 0 213 176" fill="none" xmlns="http://www.w3.org/2000/svg">
<path d="M202.335 5.33334C202.335 8.27886 204.722 10.6667 207.668 10.6667C210.613 10.6667 213.001 8.27886 213.001 5.33334C213.001 2.38782 210.613 3.33786e-06 207.668 3.33786e-06C204.722 3.33786e-06 202.335 2.38782 202.335 5.33334ZM3.16797 175.333L11.1998 167.037L-0.000671864 164.23L3.16797 175.333ZM4.68478 169.446L5.65065 169.705C5.99654 168.415 6.34897 167.135 6.70785 165.864L5.7455 165.593L4.78315 165.321C4.42186 166.6 4.06708 167.889 3.71892 169.187L4.68478 169.446ZM6.84927 161.782L7.80789 162.067C8.19386 160.768 8.58665 159.478 8.98614 158.199L8.03161 157.901L7.07707 157.603C6.67478 158.891 6.27927 160.189 5.89066 161.498L6.84927 161.782ZM9.25436 154.08L10.2046 154.392C10.6174 153.132 11.0367 151.883 11.4625 150.644L10.5168 150.319L9.57107 149.994C9.14219 151.242 8.71983 152.5 8.30412 153.768L9.25436 154.08ZM11.8585 146.507L12.7993 146.846C13.2546 145.582 13.7166 144.329 14.1853 143.086L13.2497 142.733L12.3141 142.38C11.8418 143.632 11.3763 144.895 10.9177 146.168L11.8585 146.507ZM14.6812 139.024L15.6114 139.391C16.1047 138.14 16.6049 136.901 17.1118 135.672L16.1874 135.291L15.2629 134.91C14.7521 136.148 14.2481 137.397 13.7509 138.657L14.6812 139.024ZM17.7524 131.581L18.6706 131.977C19.197 130.757 19.7301 129.547 20.2697 128.348L19.3578 127.938L18.446 127.527C17.902 128.736 17.3647 129.955 16.8341 131.185L17.7524 131.581ZM21.0378 124.286L21.9428 124.712C22.5146 123.495 23.0931 122.29 23.6784 121.097L22.7805 120.657L21.8827 120.216C21.2926 121.42 20.7092 122.634 20.1328 123.861L21.0378 124.286ZM24.5636 117.097L25.4539 117.552C26.0653 116.356 26.6835 115.173 27.3083 114.001L26.4258 113.53L25.5434 113.06C24.9133 114.242 24.2898 115.436 23.6732 116.641L24.5636 117.097ZM28.3486 109.998L29.2227 110.484C29.8675 109.324 30.5188 108.175 31.1765 107.039L30.311 106.538L29.4456 106.037C28.782 107.184 28.1249 108.342 27.4745 109.512L28.3486 109.998ZM32.3628 103.065L33.2192 103.582C33.9106 102.435 34.6086 101.301 35.313 100.179L34.4661 99.6472L33.6192 99.1154C32.9084 100.247 32.2041 101.392 31.5065 102.549L32.3628 103.065ZM36.6104 96.2999L37.4475 96.8469C38.1856 95.7175 38.9302 94.6011 39.6811 93.4976L38.8544 92.935L38.0277 92.3725C37.2697 93.4863 36.5182 94.613 35.7733 95.7528L36.6104 96.2999ZM41.1365 89.6477L41.9526 90.2257C42.7234 89.1373 43.5004 88.0619 44.2834 86.9994L43.4784 86.4061L42.6734 85.8129C41.8829 86.8855 41.0985 87.9711 40.3205 89.0698L41.1365 89.6477ZM45.8996 83.1857L46.6931 83.7943C47.5023 82.7392 48.3175 81.6973 49.1385 80.6685L48.3568 80.0448L47.5752 79.4211C46.7462 80.4599 45.9231 81.5119 45.1061 82.5771L45.8996 83.1857ZM50.8974 76.9236L51.6667 77.5625C52.5212 76.5336 53.3814 75.5182 54.247 74.5163L53.4904 73.8625L52.7337 73.2087C51.8595 74.2205 50.9909 75.2458 50.1281 76.2848L50.8974 76.9236ZM56.1289 70.8688L56.8726 71.5374C57.7711 70.5379 58.6752 69.5523 59.5845 68.5806L58.8544 67.8973L58.1242 67.2141C57.2058 68.1955 56.2927 69.1908 55.3853 70.2003L56.1289 70.8688ZM61.6115 65.009L62.3279 65.7067C63.2628 64.7466 64.2028 63.8007 65.1476 62.8687L64.4454 62.1568L63.7431 61.4449C62.7888 62.3863 61.8393 63.3417 60.8951 64.3114L61.6115 65.009ZM67.3289 59.3691L68.0167 60.0951C68.9837 59.1789 69.9553 58.2769 70.9313 57.3888L70.2583 56.6492L69.5853 55.9095C68.5994 56.8066 67.618 57.7178 66.6412 58.6432L67.3289 59.3691ZM73.2635 53.9702L73.9213 54.7233C74.9222 53.8492 75.9273 52.9892 76.9363 52.1433L76.2938 51.377L75.6514 50.6107C74.6321 51.4652 73.6168 52.3339 72.6057 53.217L73.2635 53.9702ZM79.4081 48.8197L80.0347 49.599C81.0737 48.7635 82.1164 47.9424 83.1624 47.1356L82.5516 46.3438L81.9409 45.552C80.8842 46.367 79.8309 47.1964 78.7814 48.0404L79.4081 48.8197ZM85.7544 43.9251L86.3489 44.7292C87.4239 43.9344 88.5021 43.1543 89.583 42.3886L89.005 41.5726L88.427 40.7566C87.335 41.53 86.2459 42.3181 85.1599 43.121L85.7544 43.9251ZM92.2929 39.2934L92.8543 40.1209C93.9633 39.3686 95.0749 38.6311 96.1886 37.9083L95.6442 37.0695L95.0998 36.2307C93.9748 36.9608 92.8519 37.7058 91.7315 38.4658L92.2929 39.2934ZM99.0133 34.9308L99.5407 35.7804C100.682 35.0721 101.825 34.3788 102.969 33.7003L102.459 32.8401L101.949 31.98C100.793 32.6654 99.6385 33.3657 98.4859 34.0812L99.0133 34.9308ZM105.912 30.8386L106.405 31.7088C107.573 31.0474 108.743 30.401 109.913 29.7695L109.437 28.8895L108.962 28.0096C107.781 28.6474 106.6 29.3003 105.42 29.9684L105.912 30.8386ZM112.974 27.0258L113.431 27.9151C114.624 27.3018 115.816 26.7037 117.008 26.1205L116.569 25.2222L116.129 24.3239C114.925 24.913 113.721 25.5171 112.516 26.1366L112.974 27.0258ZM120.18 23.4996L120.602 24.4064C121.817 23.8415 123.031 23.2919 124.244 22.7572L123.841 21.8422L123.438 20.9271C122.213 21.4672 120.986 22.0223 119.759 22.5927L120.18 23.4996ZM127.521 20.2635L127.906 21.1864C129.142 20.6702 130.377 20.1694 131.609 19.6836L131.242 18.7533L130.876 17.823C129.631 18.3136 128.384 18.8194 127.135 19.3407L127.521 20.2635ZM134.982 17.3214L135.33 18.2587C136.587 17.7916 137.841 17.34 139.091 16.9034L138.761 15.9593L138.431 15.0152C137.169 15.4561 135.903 15.9123 134.634 16.384L134.982 17.3214ZM142.553 14.6769L142.864 15.6273C144.14 15.2097 145.411 14.8076 146.678 14.4208L146.386 13.4644L146.093 12.5081C144.814 12.8987 143.53 13.3047 142.242 13.7265L142.553 14.6769ZM150.22 12.3346L150.493 13.2966C151.787 12.929 153.076 12.5773 154.357 12.2409L154.103 11.2737L153.85 10.3065C152.555 10.6461 151.254 11.0014 149.947 11.3727L150.22 12.3346ZM157.97 10.3L158.204 11.2721C159.517 10.9555 160.821 10.655 162.117 10.3703L161.902 9.39358L161.687 8.4169C160.379 8.70457 159.061 9.00809 157.735 9.32788L157.97 10.3ZM165.808 8.57639L166.003 9.55724C167.326 9.29442 168.639 9.048 169.941 8.81747L169.767 7.83279L169.593 6.8481C168.277 7.08104 166.95 7.33002 165.613 7.59555L165.808 8.57639ZM173.72 7.17562L173.873 8.16376C175.2 7.95757 176.514 7.76799 177.813 7.59446L177.681 6.60325L177.549 5.61204C176.235 5.78747 174.907 5.9791 173.566 6.18749L173.72 7.17562ZM181.679 6.11435L181.789 7.10825C183.122 6.96038 184.438 6.82956 185.736 6.71516L185.648 5.71902L185.561 4.72288C184.247 4.8386 182.916 4.97092 181.569 5.12045L181.679 6.11435ZM189.661 5.41321L189.725 6.41115C191.077 6.32439 192.407 6.25575 193.715 6.20447L193.676 5.20524L193.637 4.20601C192.312 4.25794 190.965 4.32744 189.597 4.41526L189.661 5.41321ZM197.665 5.10056L197.678 6.10047C199.035 6.08281 200.364 6.08436 201.663 6.10414L201.678 5.10426L201.694 4.10437C200.375 4.0843 199.027 4.08274 197.652 4.10064L197.665 5.10056ZM205.706 5.2269L205.66 6.22584C206.318 6.2562 206.966 6.29143 207.606 6.33139L207.668 5.33334L207.73 4.33528C207.08 4.29464 206.421 4.25882 205.753 4.22796L205.706 5.2269Z" fill="#FFB300"/>
</svg>
