<svg width="24" height="24" viewBox="0 0 24 24" fill="none" xmlns="http://www.w3.org/2000/svg">
<path d="M15.9935 12.0016C15.0763 12.4669 13.5958 13.6091 12.4909 14.7323C11.1066 16.1396 10.3179 17.0455 9.86719 18L8 17.0782C8.18243 16.5174 9.91589 14.1017 11.2193 13.05C12.3653 12.1254 12.5653 12.0137 12.5969 12.0002C12.5636 11.9888 12.3504 11.8854 11.2193 10.95C9.94763 9.89834 8.18243 7.48264 8 6.92183L9.86719 6C10.3179 6.95446 11.1066 7.86039 12.4909 9.2677C13.5958 10.3909 15.0763 11.5331 15.9935 11.9984H16L15.9968 12L16 12.0016H15.9935Z" fill="#9747FF"/>
</svg>
