<svg width="70" height="23" viewBox="0 0 70 23" fill="none" xmlns="http://www.w3.org/2000/svg">
<g clip-path="url(#clip0_580_1905)">
<path d="M67.1151 13.8811L69.0369 15.1612C68.4132 16.0792 66.9213 17.6543 64.3421 17.6543C61.1392 17.6543 58.7539 15.1781 58.7539 12.0282C58.7539 8.67624 61.1645 6.40222 64.0724 6.40222C66.9971 6.40222 68.43 8.72667 68.8936 9.98157L69.1465 10.6217L61.6112 13.7379C62.1844 14.8665 63.0779 15.4392 64.3421 15.4392C65.6065 15.4392 66.4829 14.816 67.1151 13.8811ZM61.2067 11.8515L66.2386 9.76269C65.9604 9.06372 65.1345 8.56687 64.1482 8.56687C62.8924 8.56687 61.1477 9.67859 61.2067 11.8515Z" fill="#FF302F"/>
<path d="M55.1211 0.666687H57.5484V17.1405H55.1211V0.666687Z" fill="#20B15A"/>
<path d="M51.2934 6.84002H53.6366V16.8456C53.6366 20.9976 51.1838 22.7073 48.2843 22.7073C45.5534 22.7073 43.9099 20.8713 43.2946 19.3807L45.4438 18.4878C45.8315 19.4058 46.7671 20.4924 48.2843 20.4924C50.147 20.4924 51.2934 19.3385 51.2934 17.1825V16.374H51.2091C50.6527 17.0477 49.5907 17.6541 48.2422 17.6541C45.4269 17.6541 42.8477 15.2032 42.8477 12.045C42.8477 8.86974 45.4269 6.39374 48.2422 6.39374C49.5824 6.39374 50.6527 6.99172 51.2091 7.64864H51.2934V6.84002ZM51.4619 12.045C51.4619 10.0573 50.1386 8.60868 48.4529 8.60868C46.7502 8.60868 45.3173 10.0573 45.3173 12.045C45.3173 14.0072 46.7502 15.4306 48.4529 15.4306C50.1387 15.4391 51.462 14.0072 51.462 12.045" fill="#3686F7"/>
<path d="M29.5263 12.0029C29.5263 15.2454 26.9978 17.6288 23.896 17.6288C20.7943 17.6288 18.2656 15.2371 18.2656 12.0029C18.2656 8.74354 20.7943 6.36853 23.896 6.36853C26.9978 6.36853 29.5263 8.74354 29.5263 12.0029ZM27.0652 12.0029C27.0652 9.98168 25.5985 8.59185 23.896 8.59185C22.1935 8.59185 20.7268 9.98168 20.7268 12.0029C20.7268 14.0073 22.1935 15.4139 23.896 15.4139C25.5986 15.4139 27.0652 14.0073 27.0652 12.0029Z" fill="#FF302F"/>
<path d="M41.8232 12.0282C41.8232 15.2708 39.2945 17.6542 36.1929 17.6542C33.091 17.6542 30.5625 15.2706 30.5625 12.0282C30.5625 8.76885 33.091 6.40222 36.1929 6.40222C39.2945 6.40222 41.8232 8.76047 41.8232 12.0282ZM39.3535 12.0282C39.3535 10.007 37.887 8.61716 36.1843 8.61716C34.4817 8.61716 33.0151 10.007 33.0151 12.0282C33.0151 14.0326 34.4818 15.4392 36.1843 15.4392C37.8954 15.4392 39.3535 14.0242 39.3535 12.0282Z" fill="#FFBA40"/>
<path d="M9.00681 15.1865C5.47513 15.1865 2.71063 12.3398 2.71063 8.8109C2.71063 5.28211 5.47513 2.4354 9.00681 2.4354C10.9117 2.4354 12.3024 3.18493 13.3307 4.14511L15.0249 2.4523C13.5921 1.07951 11.6788 0.0349731 9.00681 0.0349731C4.16878 0.0351083 0.0976562 3.97678 0.0976562 8.8109C0.0976562 13.645 4.16878 17.5868 9.00681 17.5868C11.6198 17.5868 13.5921 16.7278 15.1345 15.1276C16.7191 13.5442 17.2079 11.3207 17.2079 9.51838C17.2079 8.95407 17.1405 8.37299 17.0646 7.94347H9.00681V10.2848H14.7468C14.5782 11.7504 14.1146 12.7526 13.4319 13.4346C12.6059 14.2685 11.2995 15.1865 9.00681 15.1865Z" fill="#3686F7"/>
</g>
<defs>
<clipPath id="clip0_580_1905">
<rect width="69.248" height="22.722" fill="white"/>
</clipPath>
</defs>
</svg>
