<svg width="305" height="161" viewBox="0 0 305 161" fill="none" xmlns="http://www.w3.org/2000/svg">
<path d="M4.88672 34.22H298.227" stroke="#EDE8F5" stroke-width="0.977775"/>
<path d="M4.88672 68.44H298.227" stroke="#EDE8F5" stroke-width="0.977775"/>
<path d="M4.88672 102.66H298.227" stroke="#EDE8F5" stroke-width="0.977775"/>
<path d="M4.88672 107.548L63.5547 97.7713L122.223 83.1055L180.891 58.6627L239.559 24.4427L298.227 14.6655V136.88H4.88672V107.548Z" fill="url(#paint0_linear_588_773)"/>
<path d="M4.88672 107.548L63.5547 97.7712L122.223 83.1055L180.891 58.6627L239.559 24.4427L298.227 14.6655" stroke="#9747FF" stroke-width="2.93332" stroke-linecap="round" stroke-linejoin="round"/>
<path d="M4.88771 111.459C7.04778 111.459 8.79886 109.708 8.79886 107.548C8.79886 105.389 7.04778 103.638 4.88771 103.638C2.72764 103.638 0.976562 105.389 0.976562 107.548C0.976562 109.708 2.72764 111.459 4.88771 111.459Z" fill="white" stroke="#9747FF" stroke-width="1.95555"/>
<path d="M63.5557 101.682C65.7157 101.682 67.4668 99.9313 67.4668 97.7714C67.4668 95.6115 65.7157 93.8606 63.5557 93.8606C61.3956 93.8606 59.6445 95.6115 59.6445 97.7714C59.6445 99.9313 61.3956 101.682 63.5557 101.682Z" fill="white" stroke="#9747FF" stroke-width="1.95555"/>
<path d="M122.224 87.0165C124.384 87.0165 126.135 85.2656 126.135 83.1057C126.135 80.9458 124.384 79.1949 122.224 79.1949C120.064 79.1949 118.312 80.9458 118.312 83.1057C118.312 85.2656 120.064 87.0165 122.224 87.0165Z" fill="white" stroke="#9747FF" stroke-width="1.95555"/>
<path d="M180.892 62.5736C183.052 62.5736 184.803 60.8227 184.803 58.6628C184.803 56.5029 183.052 54.752 180.892 54.752C178.732 54.752 176.98 56.5029 176.98 58.6628C176.98 60.8227 178.732 62.5736 180.892 62.5736Z" fill="white" stroke="#9747FF" stroke-width="1.95555"/>
<path d="M239.56 28.3536C241.72 28.3536 243.471 26.6027 243.471 24.4428C243.471 22.2829 241.72 20.532 239.56 20.532C237.4 20.532 235.648 22.2829 235.648 24.4428C235.648 26.6027 237.4 28.3536 239.56 28.3536Z" fill="white" stroke="#9747FF" stroke-width="1.95555"/>
<path d="M298.225 19.5542C300.925 19.5542 303.114 17.3655 303.114 14.6657C303.114 11.9658 300.925 9.77716 298.225 9.77716C295.525 9.77716 293.336 11.9658 293.336 14.6657C293.336 17.3655 295.525 19.5542 298.225 19.5542Z" fill="#9747FF" stroke="white" stroke-width="1.95555"/>
<path d="M11.8667 157.04C11.3934 157.04 10.9767 156.933 10.6167 156.72C10.2634 156.5 9.99005 156.2 9.79672 155.82C9.60339 155.433 9.50339 154.99 9.49672 154.49L10.5967 154.43C10.6034 154.963 10.7167 155.367 10.9367 155.64C11.1567 155.913 11.4667 156.05 11.8667 156.05C12.2867 156.05 12.6067 155.907 12.8267 155.62C13.0534 155.333 13.1667 154.92 13.1667 154.38V149.78H14.2467V154.38C14.2467 154.92 14.1467 155.39 13.9467 155.79C13.7534 156.19 13.4801 156.5 13.1267 156.72C12.7734 156.933 12.3534 157.04 11.8667 157.04ZM17.2009 157C16.6476 157 16.2043 156.873 15.8709 156.62C15.5443 156.367 15.3809 156.01 15.3809 155.55C15.3809 155.09 15.5176 154.733 15.7909 154.48C16.0709 154.22 16.5009 154.033 17.0809 153.92L18.9109 153.57C18.9109 153.157 18.8143 152.85 18.6209 152.65C18.4276 152.443 18.1409 152.34 17.7609 152.34C17.4209 152.34 17.1543 152.417 16.9609 152.57C16.7676 152.717 16.6343 152.937 16.5609 153.23L15.4709 153.16C15.5709 152.627 15.8176 152.207 16.2109 151.9C16.6109 151.593 17.1276 151.44 17.7609 151.44C18.4809 151.44 19.0276 151.633 19.4009 152.02C19.7809 152.4 19.9709 152.937 19.9709 153.63V155.7C19.9709 155.827 19.9909 155.917 20.0309 155.97C20.0776 156.017 20.1509 156.04 20.2509 156.04H20.4409V156.88C20.4076 156.887 20.3543 156.893 20.2809 156.9C20.2076 156.907 20.1309 156.91 20.0509 156.91C19.8243 156.91 19.6276 156.873 19.4609 156.8C19.3009 156.727 19.1809 156.607 19.1009 156.44C19.0209 156.267 18.9809 156.037 18.9809 155.75L19.0909 155.8C19.0376 156.033 18.9209 156.24 18.7409 156.42C18.5676 156.6 18.3443 156.743 18.0709 156.85C17.8043 156.95 17.5143 157 17.2009 157ZM17.3709 156.16C17.6909 156.16 17.9643 156.1 18.1909 155.98C18.4176 155.853 18.5943 155.68 18.7209 155.46C18.8476 155.24 18.9109 154.99 18.9109 154.71V154.37L17.3509 154.67C17.0309 154.73 16.8043 154.827 16.6709 154.96C16.5443 155.087 16.4809 155.25 16.4809 155.45C16.4809 155.677 16.5576 155.853 16.7109 155.98C16.8709 156.1 17.0909 156.16 17.3709 156.16ZM21.3359 156.88V151.56H22.3059L22.3459 152.98L22.2159 152.91C22.2759 152.563 22.3893 152.283 22.5559 152.07C22.7226 151.857 22.9259 151.7 23.1659 151.6C23.4059 151.493 23.6659 151.44 23.9459 151.44C24.3459 151.44 24.6759 151.53 24.9359 151.71C25.2026 151.883 25.4026 152.123 25.5359 152.43C25.6759 152.73 25.7459 153.073 25.7459 153.46V156.88H24.6859V153.78C24.6859 153.467 24.6526 153.203 24.5859 152.99C24.5193 152.777 24.4093 152.613 24.2559 152.5C24.1026 152.387 23.9026 152.33 23.6559 152.33C23.2826 152.33 22.9793 152.453 22.7459 152.7C22.5126 152.947 22.3959 153.307 22.3959 153.78V156.88H21.3359Z" fill="#6B6380"/>
<path d="M62.8092 156.88V149.78H67.4192V150.77H63.3192L63.8892 150.18V153.44L63.3192 152.93H67.2392V153.89H63.3192L63.8892 153.38V156.88H62.8092ZM70.5533 157C70.0333 157 69.5833 156.887 69.2033 156.66C68.8299 156.433 68.5399 156.11 68.3333 155.69C68.1333 155.27 68.0333 154.78 68.0333 154.22C68.0333 153.66 68.1333 153.173 68.3333 152.76C68.5399 152.34 68.8299 152.017 69.2033 151.79C69.5766 151.557 70.0166 151.44 70.5233 151.44C71.0033 151.44 71.4266 151.553 71.7933 151.78C72.1599 152 72.4433 152.32 72.6433 152.74C72.8499 153.16 72.9533 153.667 72.9533 154.26V154.53H69.1333C69.1599 155.05 69.2966 155.44 69.5433 155.7C69.7966 155.96 70.1366 156.09 70.5633 156.09C70.8766 156.09 71.1366 156.017 71.3433 155.87C71.5499 155.723 71.6933 155.527 71.7733 155.28L72.8733 155.35C72.7333 155.843 72.4566 156.243 72.0433 156.55C71.6366 156.85 71.1399 157 70.5533 157ZM69.1333 153.73H71.8333C71.7999 153.257 71.6633 152.907 71.4233 152.68C71.1899 152.453 70.8899 152.34 70.5233 152.34C70.1433 152.34 69.8299 152.46 69.5833 152.7C69.3433 152.933 69.1933 153.277 69.1333 153.73ZM76.6773 157C76.3107 157 75.984 156.92 75.6973 156.76C75.4173 156.593 75.2007 156.367 75.0473 156.08L75.0173 156.88H74.0273V149.78H75.0873V152.31C75.2273 152.077 75.434 151.873 75.7073 151.7C75.9873 151.527 76.3107 151.44 76.6773 151.44C77.1373 151.44 77.5373 151.553 77.8773 151.78C78.2173 152.007 78.4773 152.33 78.6573 152.75C78.844 153.163 78.9373 153.653 78.9373 154.22C78.9373 154.787 78.844 155.28 78.6573 155.7C78.4773 156.113 78.2173 156.433 77.8773 156.66C77.5373 156.887 77.1373 157 76.6773 157ZM76.5073 156.08C76.914 156.08 77.2373 155.917 77.4773 155.59C77.7173 155.257 77.8373 154.8 77.8373 154.22C77.8373 153.64 77.7173 153.187 77.4773 152.86C77.2373 152.527 76.9173 152.36 76.5173 152.36C76.2173 152.36 75.9607 152.433 75.7473 152.58C75.534 152.727 75.3707 152.94 75.2573 153.22C75.144 153.493 75.0873 153.827 75.0873 154.22C75.0873 154.6 75.144 154.93 75.2573 155.21C75.3707 155.49 75.534 155.707 75.7473 155.86C75.9607 156.007 76.214 156.08 76.5073 156.08Z" fill="#6B6380"/>
<path d="M115.876 156.88V149.78H117.356L119.466 155.61L121.576 149.78H123.056V156.88H121.976V151.68L120.066 156.87H118.866L116.956 151.68V156.88H115.876ZM126.054 157C125.501 157 125.058 156.873 124.724 156.62C124.398 156.367 124.234 156.01 124.234 155.55C124.234 155.09 124.371 154.733 124.644 154.48C124.924 154.22 125.354 154.033 125.934 153.92L127.764 153.57C127.764 153.157 127.668 152.85 127.474 152.65C127.281 152.443 126.994 152.34 126.614 152.34C126.274 152.34 126.008 152.417 125.814 152.57C125.621 152.717 125.488 152.937 125.414 153.23L124.324 153.16C124.424 152.627 124.671 152.207 125.064 151.9C125.464 151.593 125.981 151.44 126.614 151.44C127.334 151.44 127.881 151.633 128.254 152.02C128.634 152.4 128.824 152.937 128.824 153.63V155.7C128.824 155.827 128.844 155.917 128.884 155.97C128.931 156.017 129.004 156.04 129.104 156.04H129.294V156.88C129.261 156.887 129.208 156.893 129.134 156.9C129.061 156.907 128.984 156.91 128.904 156.91C128.678 156.91 128.481 156.873 128.314 156.8C128.154 156.727 128.034 156.607 127.954 156.44C127.874 156.267 127.834 156.037 127.834 155.75L127.944 155.8C127.891 156.033 127.774 156.24 127.594 156.42C127.421 156.6 127.198 156.743 126.924 156.85C126.658 156.95 126.368 157 126.054 157ZM126.224 156.16C126.544 156.16 126.818 156.1 127.044 155.98C127.271 155.853 127.448 155.68 127.574 155.46C127.701 155.24 127.764 154.99 127.764 154.71V154.37L126.204 154.67C125.884 154.73 125.658 154.827 125.524 154.96C125.398 155.087 125.334 155.25 125.334 155.45C125.334 155.677 125.411 155.853 125.564 155.98C125.724 156.1 125.944 156.16 126.224 156.16ZM130.189 156.88V151.56H131.159L131.199 152.97L131.109 152.94C131.183 152.46 131.329 152.11 131.549 151.89C131.776 151.67 132.079 151.56 132.459 151.56H132.969V152.51H132.459C132.193 152.51 131.969 152.553 131.789 152.64C131.609 152.727 131.473 152.86 131.379 153.04C131.293 153.22 131.249 153.453 131.249 153.74V156.88H130.189Z" fill="#6B6380"/>
<path d="M169.278 156.88L171.838 149.78H173.208L175.768 156.88H174.618L173.968 155.03H171.068L170.428 156.88H169.278ZM171.408 154.05H173.638L172.518 150.81L171.408 154.05ZM176.527 158.38V151.56H177.527L177.557 152.7L177.437 152.64C177.571 152.247 177.791 151.95 178.097 151.75C178.404 151.543 178.757 151.44 179.157 151.44C179.677 151.44 180.104 151.57 180.437 151.83C180.777 152.083 181.027 152.42 181.187 152.84C181.354 153.26 181.437 153.72 181.437 154.22C181.437 154.72 181.354 155.18 181.187 155.6C181.027 156.02 180.777 156.36 180.437 156.62C180.104 156.873 179.677 157 179.157 157C178.891 157 178.641 156.953 178.407 156.86C178.174 156.767 177.974 156.637 177.807 156.47C177.647 156.297 177.534 156.093 177.467 155.86L177.587 155.74V158.38H176.527ZM178.967 156.08C179.394 156.08 179.727 155.917 179.967 155.59C180.214 155.263 180.337 154.807 180.337 154.22C180.337 153.633 180.214 153.177 179.967 152.85C179.727 152.523 179.394 152.36 178.967 152.36C178.687 152.36 178.444 152.43 178.237 152.57C178.031 152.703 177.871 152.91 177.757 153.19C177.644 153.47 177.587 153.813 177.587 154.22C177.587 154.627 177.641 154.97 177.747 155.25C177.861 155.53 178.021 155.74 178.227 155.88C178.441 156.013 178.687 156.08 178.967 156.08ZM182.514 156.88V151.56H183.484L183.524 152.97L183.434 152.94C183.507 152.46 183.654 152.11 183.874 151.89C184.1 151.67 184.404 151.56 184.784 151.56H185.294V152.51H184.784C184.517 152.51 184.294 152.553 184.114 152.64C183.934 152.727 183.797 152.86 183.704 153.04C183.617 153.22 183.574 153.453 183.574 153.74V156.88H182.514Z" fill="#6B6380"/>
<path d="M222.005 156.88V149.78H223.485L225.595 155.61L227.705 149.78H229.185V156.88H228.105V151.68L226.195 156.87H224.995L223.085 151.68V156.88H222.005ZM232.183 157C231.63 157 231.187 156.873 230.853 156.62C230.527 156.367 230.363 156.01 230.363 155.55C230.363 155.09 230.5 154.733 230.773 154.48C231.053 154.22 231.483 154.033 232.063 153.92L233.893 153.57C233.893 153.157 233.797 152.85 233.603 152.65C233.41 152.443 233.123 152.34 232.743 152.34C232.403 152.34 232.137 152.417 231.943 152.57C231.75 152.717 231.617 152.937 231.543 153.23L230.453 153.16C230.553 152.627 230.8 152.207 231.193 151.9C231.593 151.593 232.11 151.44 232.743 151.44C233.463 151.44 234.01 151.633 234.383 152.02C234.763 152.4 234.953 152.937 234.953 153.63V155.7C234.953 155.827 234.973 155.917 235.013 155.97C235.06 156.017 235.133 156.04 235.233 156.04H235.423V156.88C235.39 156.887 235.337 156.893 235.263 156.9C235.19 156.907 235.113 156.91 235.033 156.91C234.807 156.91 234.61 156.873 234.443 156.8C234.283 156.727 234.163 156.607 234.083 156.44C234.003 156.267 233.963 156.037 233.963 155.75L234.073 155.8C234.02 156.033 233.903 156.24 233.723 156.42C233.55 156.6 233.327 156.743 233.053 156.85C232.787 156.95 232.497 157 232.183 157ZM232.353 156.16C232.673 156.16 232.947 156.1 233.173 155.98C233.4 155.853 233.577 155.68 233.703 155.46C233.83 155.24 233.893 154.99 233.893 154.71V154.37L232.333 154.67C232.013 154.73 231.787 154.827 231.653 154.96C231.527 155.087 231.463 155.25 231.463 155.45C231.463 155.677 231.54 155.853 231.693 155.98C231.853 156.1 232.073 156.16 232.353 156.16ZM236.374 158.38V157.51H237.024C237.204 157.51 237.338 157.483 237.424 157.43C237.511 157.377 237.578 157.287 237.624 157.16L237.794 156.72H237.464L235.544 151.56H236.664L238.124 155.74L239.514 151.56H240.644L238.524 157.5C238.418 157.807 238.258 158.03 238.044 158.17C237.838 158.31 237.548 158.38 237.174 158.38H236.374Z" fill="#6B6380"/>
<path d="M279.187 157.04C278.714 157.04 278.297 156.933 277.937 156.72C277.584 156.5 277.31 156.2 277.117 155.82C276.924 155.433 276.824 154.99 276.817 154.49L277.917 154.43C277.924 154.963 278.037 155.367 278.257 155.64C278.477 155.913 278.787 156.05 279.187 156.05C279.607 156.05 279.927 155.907 280.147 155.62C280.374 155.333 280.487 154.92 280.487 154.38V149.78H281.567V154.38C281.567 154.92 281.467 155.39 281.267 155.79C281.074 156.19 280.8 156.5 280.447 156.72C280.094 156.933 279.674 157.04 279.187 157.04ZM284.781 157C284.248 157 283.821 156.823 283.501 156.47C283.188 156.11 283.031 155.613 283.031 154.98V151.56H284.091V154.71C284.091 155.19 284.175 155.543 284.341 155.77C284.508 155.997 284.761 156.11 285.101 156.11C285.488 156.11 285.788 155.987 286.001 155.74C286.221 155.487 286.331 155.133 286.331 154.68V151.56H287.391V156.88H286.401L286.381 155.49L286.531 155.55C286.438 156.017 286.241 156.377 285.941 156.63C285.641 156.877 285.255 157 284.781 157ZM288.891 156.88V151.56H289.861L289.901 152.98L289.771 152.91C289.831 152.563 289.944 152.283 290.111 152.07C290.277 151.857 290.481 151.7 290.721 151.6C290.961 151.493 291.221 151.44 291.501 151.44C291.901 151.44 292.231 151.53 292.491 151.71C292.757 151.883 292.957 152.123 293.091 152.43C293.231 152.73 293.301 153.073 293.301 153.46V156.88H292.241V153.78C292.241 153.467 292.207 153.203 292.141 152.99C292.074 152.777 291.964 152.613 291.811 152.5C291.657 152.387 291.457 152.33 291.211 152.33C290.837 152.33 290.534 152.453 290.301 152.7C290.067 152.947 289.951 153.307 289.951 153.78V156.88H288.891Z" fill="#6B6380"/>
<defs>
<linearGradient id="paint0_linear_588_773" x1="4.88672" y1="14.6655" x2="4.88672" y2="12236.1" gradientUnits="userSpaceOnUse">
<stop stop-color="#9747FF" stop-opacity="0.3"/>
<stop offset="1" stop-color="#9747FF" stop-opacity="0.05"/>
</linearGradient>
</defs>
</svg>
