<svg width="109" height="40" viewBox="0 0 109 40" fill="none" xmlns="http://www.w3.org/2000/svg">
<path d="M20 1H89C99.4934 1 108 9.50659 108 20C108 30.4934 99.4934 39 89 39H20C9.50659 39 1 30.4934 1 20C1 9.50659 9.50659 1 20 1Z" fill="#FF9696"/>
<path d="M20 1H89C99.4934 1 108 9.50659 108 20C108 30.4934 99.4934 39 89 39H20C9.50659 39 1 30.4934 1 20C1 9.50659 9.50659 1 20 1Z" stroke="#FF9696" stroke-width="2"/>
<path d="M27.293 10.293C27.4805 10.1056 27.7348 10.0002 28 10.0002C28.2652 10.0002 28.5195 10.1056 28.707 10.293L31.707 13.293C31.8892 13.4816 31.99 13.7342 31.9877 13.9964C31.9854 14.2586 31.8802 14.5094 31.6948 14.6948C31.5094 14.8803 31.2586 14.9854 30.9964 14.9877C30.7342 14.99 30.4816 14.8892 30.293 14.707L29 13.414V23C29 23.2652 28.8946 23.5196 28.7071 23.7071C28.5196 23.8947 28.2652 24 28 24C27.7348 24 27.4804 23.8947 27.2929 23.7071C27.1054 23.5196 27 23.2652 27 23V13.414L25.707 14.707C25.5184 14.8892 25.2658 14.99 25.0036 14.9877C24.7414 14.9854 24.4906 14.8803 24.3052 14.6948C24.1198 14.5094 24.0146 14.2586 24.0123 13.9964C24.01 13.7342 24.1108 13.4816 24.293 13.293L27.293 10.293ZM20 19C20 18.4696 20.2107 17.9609 20.5858 17.5858C20.9609 17.2107 21.4696 17 22 17H24C24.2652 17 24.5196 17.1054 24.7071 17.2929C24.8946 17.4805 25 17.7348 25 18C25 18.2652 24.8946 18.5196 24.7071 18.7071C24.5196 18.8947 24.2652 19 24 19H22V28H34V19H32C31.7348 19 31.4804 18.8947 31.2929 18.7071C31.1054 18.5196 31 18.2652 31 18C31 17.7348 31.1054 17.4805 31.2929 17.2929C31.4804 17.1054 31.7348 17 32 17H34C34.5304 17 35.0391 17.2107 35.4142 17.5858C35.7893 17.9609 36 18.4696 36 19V28C36 28.5305 35.7893 29.0392 35.4142 29.4142C35.0391 29.7893 34.5304 30 34 30H22C21.4696 30 20.9609 29.7893 20.5858 29.4142C20.2107 29.0392 20 28.5305 20 28V19Z" fill="white"/>
<path d="M55.625 17.4205C55.5644 16.8826 55.3144 16.4659 54.875 16.1705C54.4356 15.8712 53.8826 15.7216 53.2159 15.7216C52.7386 15.7216 52.3258 15.7973 51.9773 15.9489C51.6288 16.0966 51.358 16.3011 51.1648 16.5625C50.9754 16.8201 50.8807 17.1136 50.8807 17.4432C50.8807 17.7197 50.9451 17.9583 51.0739 18.1591C51.2064 18.3598 51.3788 18.5284 51.5909 18.6648C51.8068 18.7973 52.0379 18.9091 52.2841 19C52.5303 19.0871 52.767 19.1591 52.9943 19.2159L54.1307 19.5114C54.5019 19.6023 54.8826 19.7254 55.2727 19.8807C55.6629 20.036 56.0246 20.2405 56.358 20.4943C56.6913 20.7481 56.9602 21.0625 57.1648 21.4375C57.3731 21.8125 57.4773 22.2614 57.4773 22.7841C57.4773 23.4432 57.3068 24.0284 56.9659 24.5398C56.6288 25.0511 56.1383 25.4545 55.4943 25.75C54.8542 26.0455 54.0795 26.1932 53.1705 26.1932C52.2992 26.1932 51.5455 26.0549 50.9091 25.7784C50.2727 25.5019 49.7746 25.1098 49.4148 24.6023C49.0549 24.0909 48.8561 23.4848 48.8182 22.7841H50.5795C50.6136 23.2045 50.75 23.5549 50.9886 23.8352C51.2311 24.1117 51.5398 24.3182 51.9148 24.4545C52.2936 24.5871 52.7083 24.6534 53.1591 24.6534C53.6553 24.6534 54.0966 24.5758 54.483 24.4205C54.8731 24.2614 55.1799 24.0417 55.4034 23.7614C55.6269 23.4773 55.7386 23.1458 55.7386 22.767C55.7386 22.4223 55.6402 22.1402 55.4432 21.9205C55.25 21.7008 54.9867 21.5189 54.6534 21.375C54.3239 21.2311 53.9508 21.1042 53.5341 20.9943L52.1591 20.6193C51.2273 20.3655 50.4886 19.9924 49.9432 19.5C49.4015 19.0076 49.1307 18.3561 49.1307 17.5455C49.1307 16.875 49.3125 16.2898 49.6761 15.7898C50.0398 15.2898 50.5322 14.9015 51.1534 14.625C51.7746 14.3447 52.4754 14.2045 53.2557 14.2045C54.0436 14.2045 54.7386 14.3428 55.3409 14.6193C55.947 14.8958 56.4242 15.2765 56.7727 15.7614C57.1212 16.2424 57.303 16.7955 57.3182 17.4205H55.625ZM61.1378 20.8182V26H59.4389V14.3636H61.1151V18.6932H61.223C61.4276 18.2235 61.7401 17.8504 62.1605 17.5739C62.581 17.2973 63.1302 17.1591 63.8082 17.1591C64.4067 17.1591 64.9295 17.2822 65.3764 17.5284C65.8272 17.7746 66.1757 18.142 66.4219 18.6307C66.6719 19.1155 66.7969 19.7216 66.7969 20.4489V26H65.098V20.6534C65.098 20.0133 64.9332 19.517 64.6037 19.1648C64.2741 18.8087 63.8158 18.6307 63.2287 18.6307C62.8272 18.6307 62.4673 18.7159 62.1491 18.8864C61.8348 19.0568 61.5866 19.3068 61.4048 19.6364C61.2268 19.9621 61.1378 20.3561 61.1378 20.8182ZM71.6037 26.1932C71.0507 26.1932 70.5507 26.0909 70.1037 25.8864C69.6567 25.678 69.3026 25.3769 69.0412 24.983C68.7836 24.589 68.6548 24.1061 68.6548 23.5341C68.6548 23.0417 68.7495 22.6364 68.9389 22.3182C69.1283 22 69.384 21.7481 69.706 21.5625C70.0279 21.3769 70.3878 21.2367 70.7855 21.142C71.1832 21.0473 71.5885 20.9754 72.0014 20.9261C72.5241 20.8655 72.9484 20.8163 73.2741 20.7784C73.5999 20.7367 73.8366 20.6705 73.9844 20.5795C74.1321 20.4886 74.206 20.3409 74.206 20.1364V20.0966C74.206 19.6004 74.0658 19.2159 73.7855 18.9432C73.509 18.6705 73.0961 18.5341 72.5469 18.5341C71.9749 18.5341 71.5241 18.661 71.1946 18.9148C70.8688 19.1648 70.6435 19.4432 70.5185 19.75L68.9219 19.3864C69.1113 18.8561 69.3878 18.428 69.7514 18.1023C70.1188 17.7727 70.5412 17.5341 71.0185 17.3864C71.4957 17.2348 71.9976 17.1591 72.5241 17.1591C72.8726 17.1591 73.242 17.2008 73.6321 17.2841C74.026 17.3636 74.3935 17.5114 74.7344 17.7273C75.0791 17.9432 75.3613 18.2519 75.581 18.6534C75.8007 19.0511 75.9105 19.5682 75.9105 20.2045V26H74.2514V24.8068H74.1832C74.0734 25.0265 73.9086 25.2424 73.6889 25.4545C73.4692 25.6667 73.187 25.8428 72.8423 25.983C72.4976 26.1231 72.0848 26.1932 71.6037 26.1932ZM71.973 24.8295C72.4427 24.8295 72.8442 24.7367 73.1776 24.5511C73.5147 24.3655 73.7704 24.1231 73.9446 23.8239C74.1226 23.5208 74.2116 23.197 74.2116 22.8523V21.7273C74.151 21.7879 74.0336 21.8447 73.8594 21.8977C73.6889 21.947 73.4938 21.9905 73.2741 22.0284C73.0545 22.0625 72.8404 22.0947 72.6321 22.125C72.4238 22.1515 72.2495 22.1742 72.1094 22.1932C71.7798 22.2348 71.4787 22.3049 71.206 22.4034C70.937 22.5019 70.7211 22.6439 70.5582 22.8295C70.3991 23.0114 70.3196 23.2538 70.3196 23.5568C70.3196 23.9773 70.4749 24.2955 70.7855 24.5114C71.0961 24.7235 71.492 24.8295 71.973 24.8295ZM78.1733 26V17.2727H79.8153V18.6591H79.9062C80.0653 18.1894 80.3456 17.8201 80.7472 17.5511C81.1525 17.2784 81.6108 17.142 82.1222 17.142C82.2282 17.142 82.3532 17.1458 82.4972 17.1534C82.6449 17.161 82.7604 17.1705 82.8438 17.1818V18.8068C82.7756 18.7879 82.6544 18.767 82.4801 18.7443C82.3059 18.7178 82.1316 18.7045 81.9574 18.7045C81.5559 18.7045 81.1979 18.7898 80.8835 18.9602C80.5729 19.1269 80.3267 19.3598 80.1449 19.6591C79.9631 19.9545 79.8722 20.2917 79.8722 20.6705V26H78.1733ZM87.7628 26.1761C86.9029 26.1761 86.1624 25.9924 85.5412 25.625C84.9238 25.2538 84.4465 24.733 84.1094 24.0625C83.776 23.3883 83.6094 22.5985 83.6094 21.6932C83.6094 20.7992 83.776 20.0114 84.1094 19.3295C84.4465 18.6477 84.9162 18.1155 85.5185 17.733C86.1245 17.3504 86.8329 17.1591 87.6435 17.1591C88.1359 17.1591 88.6132 17.2405 89.0753 17.4034C89.5374 17.5663 89.9522 17.822 90.3196 18.1705C90.687 18.5189 90.9768 18.9716 91.1889 19.5284C91.401 20.0814 91.5071 20.7538 91.5071 21.5455V22.1477H84.5696V20.875H89.8423C89.8423 20.428 89.7514 20.0322 89.5696 19.6875C89.3878 19.339 89.1321 19.0644 88.8026 18.8636C88.4768 18.6629 88.0942 18.5625 87.6548 18.5625C87.1776 18.5625 86.7609 18.6799 86.4048 18.9148C86.0526 19.1458 85.7798 19.4489 85.5866 19.8239C85.3973 20.1951 85.3026 20.5985 85.3026 21.0341V22.0284C85.3026 22.6117 85.4048 23.108 85.6094 23.517C85.8177 23.9261 86.1075 24.2386 86.4787 24.4545C86.8499 24.6667 87.2836 24.7727 87.7798 24.7727C88.1018 24.7727 88.3954 24.7273 88.6605 24.6364C88.9257 24.5417 89.1548 24.4015 89.348 24.2159C89.5412 24.0303 89.6889 23.8011 89.7912 23.5284L91.3991 23.8182C91.2704 24.2917 91.0393 24.7064 90.706 25.0625C90.3764 25.4148 89.9616 25.6894 89.4616 25.8864C88.9654 26.0795 88.3991 26.1761 87.7628 26.1761Z" fill="white"/>
</svg>
