<svg width="143" height="69" viewBox="0 0 143 69" fill="none" xmlns="http://www.w3.org/2000/svg">
<g filter="url(#filter0_d_598_1106)">
<path d="M126.892 63.7113L122.334 47.7198C122.098 46.8941 122.956 46.181 123.736 46.5541L138.839 53.7792C139.642 54.1633 139.581 55.3159 138.743 55.6131L132.531 57.8139C132.306 57.8938 132.116 58.0511 131.998 58.2573L128.732 63.9361C128.291 64.7028 127.135 64.5616 126.892 63.7113Z" fill="#4CAF50"/>
<path d="M121.851 47.8544C121.498 46.6158 122.784 45.5467 123.953 46.1063L139.056 53.3314C140.261 53.9077 140.17 55.6359 138.912 56.0816L132.701 58.2824C132.589 58.3224 132.494 58.4011 132.435 58.5041L129.168 64.1828C128.506 65.3329 126.773 65.1214 126.409 63.8463L121.851 47.8544Z" stroke="#4CAF50"/>
</g>
<path d="M20 1H113C123.493 1 132 9.50659 132 20C132 30.4934 123.493 39 113 39H20C9.50659 39 1 30.4934 1 20C1 9.50659 9.50659 1 20 1Z" fill="#4CAF50"/>
<path d="M20 1H113C123.493 1 132 9.50659 132 20C132 30.4934 123.493 39 113 39H20C9.50659 39 1 30.4934 1 20C1 9.50659 9.50659 1 20 1Z" stroke="#4CAF50" stroke-width="2"/>
<path d="M25.0013 18C24.7361 18 24.4818 18.1054 24.2942 18.2929C24.1067 18.4804 24.0013 18.7348 24.0013 19V23H26.0013V20H29.0013V22.5L32.5013 19L29.0013 15.5V18H25.0013ZM28.7083 9.39301L38.6083 19.293C38.7958 19.4805 38.9011 19.7348 38.9011 20C38.9011 20.2652 38.7958 20.5195 38.6083 20.707L28.7083 30.607C28.5208 30.7945 28.2665 30.8998 28.0013 30.8998C27.7362 30.8998 27.4819 30.7945 27.2943 30.607L17.3943 20.707C17.2069 20.5195 17.1016 20.2652 17.1016 20C17.1016 19.7348 17.2069 19.4805 17.3943 19.293L27.2943 9.39301C27.4819 9.20554 27.7362 9.10022 28.0013 9.10022C28.2665 9.10022 28.5208 9.20554 28.7083 9.39301Z" fill="white"/>
<path d="M53.0455 26H49.2784V14.3636H53.1648C54.3049 14.3636 55.2841 14.5966 56.1023 15.0625C56.9205 15.5246 57.5473 16.1894 57.983 17.0568C58.4223 17.9205 58.642 18.9564 58.642 20.1648C58.642 21.3769 58.4205 22.4186 57.9773 23.2898C57.5379 24.161 56.9015 24.8314 56.0682 25.3011C55.2348 25.767 54.2273 26 53.0455 26ZM51.0341 24.4659H52.9489C53.8352 24.4659 54.572 24.2992 55.1591 23.9659C55.7462 23.6288 56.1856 23.142 56.4773 22.5057C56.7689 21.8655 56.9148 21.0852 56.9148 20.1648C56.9148 19.2519 56.7689 18.4773 56.4773 17.8409C56.1894 17.2045 55.7595 16.7216 55.1875 16.392C54.6155 16.0625 53.9053 15.8977 53.0568 15.8977H51.0341V24.4659ZM60.6889 26V17.2727H62.3878V26H60.6889ZM61.5469 15.9261C61.2514 15.9261 60.9976 15.8277 60.7855 15.6307C60.5772 15.4299 60.473 15.1913 60.473 14.9148C60.473 14.6345 60.5772 14.3958 60.7855 14.1989C60.9976 13.9981 61.2514 13.8977 61.5469 13.8977C61.8423 13.8977 62.0942 13.9981 62.3026 14.1989C62.5147 14.3958 62.6207 14.6345 62.6207 14.9148C62.6207 15.1913 62.5147 15.4299 62.3026 15.6307C62.0942 15.8277 61.8423 15.9261 61.5469 15.9261ZM64.6733 26V17.2727H66.3153V18.6591H66.4062C66.5653 18.1894 66.8456 17.8201 67.2472 17.5511C67.6525 17.2784 68.1108 17.142 68.6222 17.142C68.7282 17.142 68.8532 17.1458 68.9972 17.1534C69.1449 17.161 69.2604 17.1705 69.3438 17.1818V18.8068C69.2756 18.7879 69.1544 18.767 68.9801 18.7443C68.8059 18.7178 68.6316 18.7045 68.4574 18.7045C68.0559 18.7045 67.6979 18.7898 67.3835 18.9602C67.0729 19.1269 66.8267 19.3598 66.6449 19.6591C66.4631 19.9545 66.3722 20.2917 66.3722 20.6705V26H64.6733ZM74.2628 26.1761C73.4029 26.1761 72.6624 25.9924 72.0412 25.625C71.4238 25.2538 70.9465 24.733 70.6094 24.0625C70.276 23.3883 70.1094 22.5985 70.1094 21.6932C70.1094 20.7992 70.276 20.0114 70.6094 19.3295C70.9465 18.6477 71.4162 18.1155 72.0185 17.733C72.6245 17.3504 73.3329 17.1591 74.1435 17.1591C74.6359 17.1591 75.1132 17.2405 75.5753 17.4034C76.0374 17.5663 76.4522 17.822 76.8196 18.1705C77.187 18.5189 77.4768 18.9716 77.6889 19.5284C77.901 20.0814 78.0071 20.7538 78.0071 21.5455V22.1477H71.0696V20.875H76.3423C76.3423 20.428 76.2514 20.0322 76.0696 19.6875C75.8878 19.339 75.6321 19.0644 75.3026 18.8636C74.9768 18.6629 74.5942 18.5625 74.1548 18.5625C73.6776 18.5625 73.2609 18.6799 72.9048 18.9148C72.5526 19.1458 72.2798 19.4489 72.0866 19.8239C71.8973 20.1951 71.8026 20.5985 71.8026 21.0341V22.0284C71.8026 22.6117 71.9048 23.108 72.1094 23.517C72.3177 23.9261 72.6075 24.2386 72.9787 24.4545C73.3499 24.6667 73.7836 24.7727 74.2798 24.7727C74.6018 24.7727 74.8954 24.7273 75.1605 24.6364C75.4257 24.5417 75.6548 24.4015 75.848 24.2159C76.0412 24.0303 76.1889 23.8011 76.2912 23.5284L77.8991 23.8182C77.7704 24.2917 77.5393 24.7064 77.206 25.0625C76.8764 25.4148 76.4616 25.6894 75.9616 25.8864C75.4654 26.0795 74.8991 26.1761 74.2628 26.1761ZM83.5682 26.1761C82.7235 26.1761 81.9962 25.9848 81.3864 25.6023C80.7803 25.2159 80.3144 24.6837 79.9886 24.0057C79.6629 23.3277 79.5 22.5511 79.5 21.6761C79.5 20.7898 79.6667 20.0076 80 19.3295C80.3333 18.6477 80.803 18.1155 81.4091 17.733C82.0152 17.3504 82.7292 17.1591 83.5511 17.1591C84.214 17.1591 84.8049 17.2822 85.3239 17.5284C85.8428 17.7708 86.2614 18.1117 86.5795 18.5511C86.9015 18.9905 87.0928 19.5038 87.1534 20.0909H85.5C85.4091 19.6818 85.2008 19.3295 84.875 19.0341C84.553 18.7386 84.1212 18.5909 83.5795 18.5909C83.1061 18.5909 82.6913 18.7159 82.3352 18.9659C81.983 19.2121 81.7083 19.5644 81.5114 20.0227C81.3144 20.4773 81.2159 21.0152 81.2159 21.6364C81.2159 22.2727 81.3125 22.822 81.5057 23.2841C81.6989 23.7462 81.9716 24.1042 82.3239 24.358C82.6799 24.6117 83.0985 24.7386 83.5795 24.7386C83.9015 24.7386 84.1932 24.6799 84.4545 24.5625C84.7197 24.4413 84.9413 24.2689 85.1193 24.0455C85.3011 23.822 85.428 23.553 85.5 23.2386H87.1534C87.0928 23.803 86.9091 24.3068 86.6023 24.75C86.2955 25.1932 85.8845 25.5417 85.3693 25.7955C84.858 26.0492 84.2576 26.1761 83.5682 26.1761ZM93.044 17.2727V18.6364H88.277V17.2727H93.044ZM89.5554 15.1818H91.2543V23.4375C91.2543 23.767 91.3035 24.0152 91.402 24.1818C91.5005 24.3447 91.6274 24.4564 91.7827 24.517C91.9418 24.5739 92.1141 24.6023 92.2997 24.6023C92.4361 24.6023 92.5554 24.5928 92.6577 24.5739C92.7599 24.5549 92.8395 24.5398 92.8963 24.5284L93.2031 25.9318C93.1046 25.9697 92.9645 26.0076 92.7827 26.0455C92.6009 26.0871 92.3736 26.1098 92.1009 26.1136C91.6539 26.1212 91.2372 26.0417 90.8509 25.875C90.4645 25.7083 90.152 25.4508 89.9134 25.1023C89.6747 24.7538 89.5554 24.3163 89.5554 23.7898V15.1818ZM94.9233 26V17.2727H96.6222V26H94.9233ZM95.7812 15.9261C95.4858 15.9261 95.232 15.8277 95.0199 15.6307C94.8116 15.4299 94.7074 15.1913 94.7074 14.9148C94.7074 14.6345 94.8116 14.3958 95.0199 14.1989C95.232 13.9981 95.4858 13.8977 95.7812 13.8977C96.0767 13.8977 96.3286 13.9981 96.5369 14.1989C96.7491 14.3958 96.8551 14.6345 96.8551 14.9148C96.8551 15.1913 96.7491 15.4299 96.5369 15.6307C96.3286 15.8277 96.0767 15.9261 95.7812 15.9261ZM102.584 26.1761C101.766 26.1761 101.052 25.9886 100.442 25.6136C99.8319 25.2386 99.3584 24.714 99.0213 24.0398C98.6842 23.3655 98.5156 22.5777 98.5156 21.6761C98.5156 20.7708 98.6842 19.9792 99.0213 19.3011C99.3584 18.6231 99.8319 18.0966 100.442 17.7216C101.052 17.3466 101.766 17.1591 102.584 17.1591C103.402 17.1591 104.116 17.3466 104.726 17.7216C105.336 18.0966 105.809 18.6231 106.146 19.3011C106.483 19.9792 106.652 20.7708 106.652 21.6761C106.652 22.5777 106.483 23.3655 106.146 24.0398C105.809 24.714 105.336 25.2386 104.726 25.6136C104.116 25.9886 103.402 26.1761 102.584 26.1761ZM102.589 24.75C103.12 24.75 103.559 24.6098 103.908 24.3295C104.256 24.0492 104.514 23.6761 104.68 23.2102C104.851 22.7443 104.936 22.2311 104.936 21.6705C104.936 21.1136 104.851 20.6023 104.68 20.1364C104.514 19.6667 104.256 19.2898 103.908 19.0057C103.559 18.7216 103.12 18.5795 102.589 18.5795C102.055 18.5795 101.612 18.7216 101.26 19.0057C100.911 19.2898 100.652 19.6667 100.482 20.1364C100.315 20.6023 100.232 21.1136 100.232 21.6705C100.232 22.2311 100.315 22.7443 100.482 23.2102C100.652 23.6761 100.911 24.0492 101.26 24.3295C101.612 24.6098 102.055 24.75 102.589 24.75ZM110.247 20.8182V26H108.548V17.2727H110.179V18.6932H110.287C110.488 18.2311 110.802 17.8598 111.23 17.5795C111.662 17.2992 112.205 17.1591 112.861 17.1591C113.455 17.1591 113.976 17.2841 114.423 17.5341C114.87 17.7803 115.217 18.1477 115.463 18.6364C115.709 19.125 115.832 19.7292 115.832 20.4489V26H114.134V20.6534C114.134 20.0208 113.969 19.5265 113.639 19.1705C113.31 18.8106 112.857 18.6307 112.281 18.6307C111.887 18.6307 111.537 18.7159 111.23 18.8864C110.927 19.0568 110.687 19.3068 110.509 19.6364C110.334 19.9621 110.247 20.3561 110.247 20.8182Z" fill="white"/>
<defs>
<filter id="filter0_d_598_1106" x="119.289" y="44.4542" width="23.1211" height="23.9794" filterUnits="userSpaceOnUse" color-interpolation-filters="sRGB">
<feFlood flood-opacity="0" result="BackgroundImageFix"/>
<feColorMatrix in="SourceAlpha" type="matrix" values="0 0 0 0 0 0 0 0 0 0 0 0 0 0 0 0 0 0 127 0" result="hardAlpha"/>
<feOffset dy="1"/>
<feGaussianBlur stdDeviation="1"/>
<feComposite in2="hardAlpha" operator="out"/>
<feColorMatrix type="matrix" values="0 0 0 0 0 0 0 0 0 0 0 0 0 0 0 0 0 0 0.08 0"/>
<feBlend mode="normal" in2="BackgroundImageFix" result="effect1_dropShadow_598_1106"/>
<feBlend mode="normal" in="SourceGraphic" in2="effect1_dropShadow_598_1106" result="shape"/>
</filter>
</defs>
</svg>
