<svg width="143" height="69" viewBox="0 0 143 69" fill="none" xmlns="http://www.w3.org/2000/svg">
<g filter="url(#filter0_d_598_1098)">
<path d="M126.892 63.7113L122.334 47.7198C122.098 46.8941 122.956 46.181 123.736 46.5541L138.839 53.7792C139.642 54.1633 139.581 55.3159 138.743 55.6131L132.531 57.8139C132.306 57.8938 132.116 58.0511 131.998 58.2573L128.732 63.9361C128.291 64.7028 127.135 64.5616 126.892 63.7113Z" fill="#1570EF"/>
<path d="M121.851 47.8544C121.498 46.6158 122.784 45.5467 123.953 46.1063L139.056 53.3314C140.261 53.9077 140.17 55.6359 138.912 56.0816L132.701 58.2824C132.589 58.3224 132.494 58.4011 132.435 58.5041L129.168 64.1828C128.506 65.3329 126.773 65.1214 126.409 63.8463L121.851 47.8544Z" stroke="#1570EF"/>
</g>
<path d="M20 1H106C116.493 1 125 9.50659 125 20C125 30.4934 116.493 39 106 39H20C9.50659 39 1 30.4934 1 20C1 9.50659 9.50659 1 20 1Z" fill="#1570EF"/>
<path d="M20 1H106C116.493 1 125 9.50659 125 20C125 30.4934 116.493 39 106 39H20C9.50659 39 1 30.4934 1 20C1 9.50659 9.50659 1 20 1Z" stroke="#1570EF" stroke-width="2"/>
<path d="M28.003 29C26.759 29 25.589 28.764 24.493 28.292C23.3977 27.8193 22.4447 27.178 21.634 26.368C20.8233 25.558 20.1817 24.606 19.709 23.512C19.2363 22.418 19 21.2483 19 20.003C19 18.7577 19.2363 17.5877 19.709 16.493C20.181 15.3977 20.8213 14.4447 21.63 13.634C22.4387 12.8233 23.391 12.1817 24.487 11.709C25.583 11.2363 26.753 11 27.997 11C29.241 11 30.411 11.2363 31.507 11.709C32.6023 12.181 33.5553 12.8217 34.366 13.631C35.1767 14.4403 35.8183 15.3927 36.291 16.488C36.7637 17.5833 37 18.753 37 19.997C37 21.241 36.764 22.411 36.292 23.507C35.82 24.603 35.1787 25.556 34.368 26.366C33.5573 27.176 32.6053 27.8177 31.512 28.291C30.4187 28.7643 29.249 29.0007 28.003 29ZM28 28C30.2333 28 32.125 27.225 33.675 25.675C35.225 24.125 36 22.2333 36 20C36 19.8833 35.999 19.7657 35.997 19.647C35.995 19.5283 35.9877 19.4147 35.975 19.306C35.9303 19.7507 35.7537 20.1187 35.445 20.41C35.1357 20.7007 34.7567 20.846 34.308 20.846H31.769C31.3037 20.846 30.9053 20.6807 30.574 20.35C30.2427 20.0193 30.077 19.6217 30.077 19.157V18.312H26.692V16.622C26.692 16.1573 26.858 15.758 27.19 15.424C27.5213 15.09 27.9197 14.923 28.385 14.923H29.231V14.153C29.231 13.6677 29.3897 13.2857 29.707 13.007C30.0243 12.7283 30.4033 12.5677 30.844 12.525C30.3953 12.3517 29.9353 12.221 29.464 12.133C28.9927 12.045 28.5047 12.0007 28 12C25.7667 12 23.875 12.775 22.325 14.325C20.775 15.875 20 17.7667 20 20V20.289C20 20.3783 20.0067 20.4743 20.02 20.577H24.5C25.4467 20.577 26.2473 20.9047 26.902 21.56C27.5573 22.2147 27.885 23.0123 27.885 23.953V24.808H25.346V27.538C25.7567 27.686 26.1853 27.8 26.632 27.88C27.0787 27.96 27.5347 28 28 28Z" fill="white"/>
<path d="M51.5568 26L48.3295 14.3636H50.1761L52.4432 23.375H52.5511L54.9091 14.3636H56.7386L59.0966 23.3807H59.2045L61.4659 14.3636H63.3182L60.0852 26H58.3182L55.8693 17.2841H55.7784L53.3295 26H51.5568ZM67.6847 26.1761C66.8248 26.1761 66.0843 25.9924 65.4631 25.625C64.8456 25.2538 64.3684 24.733 64.0312 24.0625C63.6979 23.3883 63.5312 22.5985 63.5312 21.6932C63.5312 20.7992 63.6979 20.0114 64.0312 19.3295C64.3684 18.6477 64.8381 18.1155 65.4403 17.733C66.0464 17.3504 66.7547 17.1591 67.5653 17.1591C68.0578 17.1591 68.535 17.2405 68.9972 17.4034C69.4593 17.5663 69.8741 17.822 70.2415 18.1705C70.6089 18.5189 70.8987 18.9716 71.1108 19.5284C71.3229 20.0814 71.429 20.7538 71.429 21.5455V22.1477H64.4915V20.875H69.7642C69.7642 20.428 69.6733 20.0322 69.4915 19.6875C69.3097 19.339 69.054 19.0644 68.7244 18.8636C68.3987 18.6629 68.0161 18.5625 67.5767 18.5625C67.0994 18.5625 66.6828 18.6799 66.3267 18.9148C65.9744 19.1458 65.7017 19.4489 65.5085 19.8239C65.3191 20.1951 65.2244 20.5985 65.2244 21.0341V22.0284C65.2244 22.6117 65.3267 23.108 65.5312 23.517C65.7396 23.9261 66.0294 24.2386 66.4006 24.4545C66.7718 24.6667 67.2055 24.7727 67.7017 24.7727C68.0237 24.7727 68.3172 24.7273 68.5824 24.6364C68.8475 24.5417 69.0767 24.4015 69.2699 24.2159C69.4631 24.0303 69.6108 23.8011 69.7131 23.5284L71.321 23.8182C71.1922 24.2917 70.9612 24.7064 70.6278 25.0625C70.2983 25.4148 69.8835 25.6894 69.3835 25.8864C68.8873 26.0795 68.321 26.1761 67.6847 26.1761ZM73.4503 26V14.3636H75.1491V18.6875H75.2514C75.3499 18.5057 75.492 18.2955 75.6776 18.0568C75.8632 17.8182 76.1207 17.6098 76.4503 17.4318C76.7798 17.25 77.2154 17.1591 77.7571 17.1591C78.4616 17.1591 79.0904 17.3371 79.6435 17.6932C80.1965 18.0492 80.6302 18.5625 80.9446 19.233C81.2628 19.9034 81.4219 20.7102 81.4219 21.6534C81.4219 22.5966 81.2647 23.4053 80.9503 24.0795C80.6359 24.75 80.2041 25.267 79.6548 25.6307C79.1056 25.9905 78.4787 26.1705 77.7741 26.1705C77.2438 26.1705 76.8101 26.0814 76.473 25.9034C76.1397 25.7254 75.8783 25.517 75.6889 25.2784C75.4995 25.0398 75.3537 24.8277 75.2514 24.642H75.1094V26H73.4503ZM75.1151 21.6364C75.1151 22.25 75.2041 22.7879 75.3821 23.25C75.5601 23.7121 75.8177 24.0739 76.1548 24.3352C76.492 24.5928 76.9048 24.7216 77.3935 24.7216C77.901 24.7216 78.3253 24.5871 78.6662 24.3182C79.0071 24.0455 79.2647 23.6761 79.4389 23.2102C79.617 22.7443 79.706 22.2197 79.706 21.6364C79.706 21.0606 79.6188 20.5436 79.4446 20.0852C79.2741 19.6269 79.0166 19.2652 78.6719 19C78.331 18.7348 77.9048 18.6023 77.3935 18.6023C76.901 18.6023 76.4844 18.7292 76.1435 18.983C75.8063 19.2367 75.5507 19.5909 75.3764 20.0455C75.2022 20.5 75.1151 21.0303 75.1151 21.6364ZM89.8693 19.4034L88.3295 19.6761C88.2652 19.4792 88.1629 19.2917 88.0227 19.1136C87.8864 18.9356 87.7008 18.7898 87.4659 18.6761C87.2311 18.5625 86.9375 18.5057 86.5852 18.5057C86.1042 18.5057 85.7027 18.6136 85.3807 18.8295C85.0587 19.0417 84.8977 19.3163 84.8977 19.6534C84.8977 19.9451 85.0057 20.1799 85.2216 20.358C85.4375 20.536 85.786 20.6818 86.267 20.7955L87.6534 21.1136C88.4564 21.2992 89.0549 21.5852 89.4489 21.9716C89.8428 22.358 90.0398 22.8598 90.0398 23.4773C90.0398 24 89.8883 24.4659 89.5852 24.875C89.286 25.2803 88.8674 25.5985 88.3295 25.8295C87.7955 26.0606 87.1761 26.1761 86.4716 26.1761C85.4943 26.1761 84.697 25.9678 84.0795 25.5511C83.4621 25.1307 83.0833 24.5341 82.9432 23.7614L84.5852 23.5114C84.6875 23.9394 84.8977 24.2633 85.2159 24.483C85.5341 24.6989 85.9489 24.8068 86.4602 24.8068C87.017 24.8068 87.4621 24.6913 87.7955 24.4602C88.1288 24.2254 88.2955 23.9394 88.2955 23.6023C88.2955 23.3295 88.1932 23.1004 87.9886 22.9148C87.7879 22.7292 87.4792 22.589 87.0625 22.4943L85.5852 22.1705C84.7708 21.9848 84.1686 21.6894 83.7784 21.2841C83.392 20.8788 83.1989 20.3655 83.1989 19.7443C83.1989 19.2292 83.3428 18.7784 83.6307 18.392C83.9186 18.0057 84.3163 17.7045 84.8239 17.4886C85.3314 17.2689 85.9129 17.1591 86.5682 17.1591C87.5114 17.1591 88.2538 17.3636 88.7955 17.7727C89.3371 18.178 89.6951 18.7216 89.8693 19.4034ZM91.9077 26V17.2727H93.6065V26H91.9077ZM92.7656 15.9261C92.4702 15.9261 92.2164 15.8277 92.0043 15.6307C91.7959 15.4299 91.6918 15.1913 91.6918 14.9148C91.6918 14.6345 91.7959 14.3958 92.0043 14.1989C92.2164 13.9981 92.4702 13.8977 92.7656 13.8977C93.0611 13.8977 93.313 13.9981 93.5213 14.1989C93.7334 14.3958 93.8395 14.6345 93.8395 14.9148C93.8395 15.1913 93.7334 15.4299 93.5213 15.6307C93.313 15.8277 93.0611 15.9261 92.7656 15.9261ZM99.9659 17.2727V18.6364H95.1989V17.2727H99.9659ZM96.4773 15.1818H98.1761V23.4375C98.1761 23.767 98.2254 24.0152 98.3239 24.1818C98.4223 24.3447 98.5492 24.4564 98.7045 24.517C98.8636 24.5739 99.036 24.6023 99.2216 24.6023C99.358 24.6023 99.4773 24.5928 99.5795 24.5739C99.6818 24.5549 99.7614 24.5398 99.8182 24.5284L100.125 25.9318C100.027 25.9697 99.8864 26.0076 99.7045 26.0455C99.5227 26.0871 99.2955 26.1098 99.0227 26.1136C98.5758 26.1212 98.1591 26.0417 97.7727 25.875C97.3864 25.7083 97.0739 25.4508 96.8352 25.1023C96.5966 24.7538 96.4773 24.3163 96.4773 23.7898V15.1818ZM105.513 26.1761C104.653 26.1761 103.912 25.9924 103.291 25.625C102.674 25.2538 102.196 24.733 101.859 24.0625C101.526 23.3883 101.359 22.5985 101.359 21.6932C101.359 20.7992 101.526 20.0114 101.859 19.3295C102.196 18.6477 102.666 18.1155 103.268 17.733C103.875 17.3504 104.583 17.1591 105.393 17.1591C105.886 17.1591 106.363 17.2405 106.825 17.4034C107.287 17.5663 107.702 17.822 108.07 18.1705C108.437 18.5189 108.727 18.9716 108.939 19.5284C109.151 20.0814 109.257 20.7538 109.257 21.5455V22.1477H102.32V20.875H107.592C107.592 20.428 107.501 20.0322 107.32 19.6875C107.138 19.339 106.882 19.0644 106.553 18.8636C106.227 18.6629 105.844 18.5625 105.405 18.5625C104.928 18.5625 104.511 18.6799 104.155 18.9148C103.803 19.1458 103.53 19.4489 103.337 19.8239C103.147 20.1951 103.053 20.5985 103.053 21.0341V22.0284C103.053 22.6117 103.155 23.108 103.359 23.517C103.568 23.9261 103.857 24.2386 104.229 24.4545C104.6 24.6667 105.034 24.7727 105.53 24.7727C105.852 24.7727 106.145 24.7273 106.411 24.6364C106.676 24.5417 106.905 24.4015 107.098 24.2159C107.291 24.0303 107.439 23.8011 107.541 23.5284L109.149 23.8182C109.02 24.2917 108.789 24.7064 108.456 25.0625C108.126 25.4148 107.712 25.6894 107.212 25.8864C106.715 26.0795 106.149 26.1761 105.513 26.1761Z" fill="white"/>
<defs>
<filter id="filter0_d_598_1098" x="119.289" y="44.4542" width="23.1211" height="23.9794" filterUnits="userSpaceOnUse" color-interpolation-filters="sRGB">
<feFlood flood-opacity="0" result="BackgroundImageFix"/>
<feColorMatrix in="SourceAlpha" type="matrix" values="0 0 0 0 0 0 0 0 0 0 0 0 0 0 0 0 0 0 127 0" result="hardAlpha"/>
<feOffset dy="1"/>
<feGaussianBlur stdDeviation="1"/>
<feComposite in2="hardAlpha" operator="out"/>
<feColorMatrix type="matrix" values="0 0 0 0 0 0 0 0 0 0 0 0 0 0 0 0 0 0 0.08 0"/>
<feBlend mode="normal" in2="BackgroundImageFix" result="effect1_dropShadow_598_1098"/>
<feBlend mode="normal" in="SourceGraphic" in2="effect1_dropShadow_598_1098" result="shape"/>
</filter>
</defs>
</svg>
