<svg width="112" height="58" viewBox="0 0 112 58" fill="none" xmlns="http://www.w3.org/2000/svg">
<g filter="url(#filter0_d_598_1115)">
<path d="M95.8924 52.7113L91.3338 36.7198C91.0984 35.8941 91.956 35.181 92.7358 35.5541L107.839 42.7792C108.642 43.1633 108.581 44.3159 107.743 44.6131L101.531 46.8139C101.306 46.8938 101.116 47.0511 100.998 47.2573L97.7318 52.9361C97.2908 53.7028 96.1347 53.5616 95.8924 52.7113Z" fill="#9747FF"/>
<path d="M90.8508 36.8544C90.4977 35.6158 91.7836 34.5467 92.9533 35.1063L108.056 42.3314C109.261 42.9077 109.17 44.6359 107.912 45.0816L101.701 47.2824C101.589 47.3224 101.494 47.4011 101.435 47.5041L98.1679 53.1828C97.5065 54.3329 95.7731 54.1214 95.4093 52.8463L90.8508 36.8544Z" stroke="#9747FF"/>
</g>
<path d="M20 1H73C83.4934 1 92 9.50659 92 20C92 30.4934 83.4934 39 73 39H20C9.50659 39 1 30.4934 1 20C1 9.50659 9.50659 1 20 1Z" fill="#9747FF"/>
<path d="M20 1H73C83.4934 1 92 9.50659 92 20C92 30.4934 83.4934 39 73 39H20C9.50659 39 1 30.4934 1 20C1 9.50659 9.50659 1 20 1Z" stroke="#9747FF" stroke-width="2"/>
<path d="M35.95 29C33.8667 29 31.8083 28.546 29.775 27.638C27.7417 26.73 25.8917 25.4423 24.225 23.775C22.5583 22.1077 21.271 20.2577 20.363 18.225C19.455 16.1923 19.0007 14.134 19 12.05C19 11.75 19.1 11.5 19.3 11.3C19.5 11.1 19.75 11 20.05 11H24.1C24.3333 11 24.5417 11.0793 24.725 11.238C24.9083 11.3967 25.0167 11.584 25.05 11.8L25.7 15.3C25.7333 15.5667 25.725 15.7917 25.675 15.975C25.625 16.1583 25.5333 16.3167 25.4 16.45L22.975 18.9C23.3083 19.5167 23.704 20.1123 24.162 20.687C24.62 21.2617 25.1243 21.816 25.675 22.35C26.1917 22.8667 26.7333 23.346 27.3 23.788C27.8667 24.23 28.4667 24.634 29.1 25L31.45 22.65C31.6 22.5 31.796 22.3877 32.038 22.313C32.28 22.2383 32.5173 22.2173 32.75 22.25L36.2 22.95C36.4333 23.0167 36.625 23.1377 36.775 23.313C36.925 23.4883 37 23.684 37 23.9V27.95C37 28.25 36.9 28.5 36.7 28.7C36.5 28.9 36.25 29 35.95 29Z" fill="white"/>
<path d="M58.9432 18.1477H57.1705C57.1023 17.7689 56.9754 17.4356 56.7898 17.1477C56.6042 16.8598 56.3769 16.6155 56.108 16.4148C55.839 16.214 55.5379 16.0625 55.2045 15.9602C54.875 15.858 54.5246 15.8068 54.1534 15.8068C53.483 15.8068 52.8826 15.9754 52.3523 16.3125C51.8258 16.6496 51.4091 17.1439 51.1023 17.7955C50.7992 18.447 50.6477 19.2424 50.6477 20.1818C50.6477 21.1288 50.7992 21.928 51.1023 22.5795C51.4091 23.2311 51.8277 23.7235 52.358 24.0568C52.8883 24.3902 53.4848 24.5568 54.1477 24.5568C54.5152 24.5568 54.8636 24.5076 55.1932 24.4091C55.5265 24.3068 55.8277 24.1572 56.0966 23.9602C56.3655 23.7633 56.5928 23.5227 56.7784 23.2386C56.9678 22.9508 57.0985 22.6212 57.1705 22.25L58.9432 22.2557C58.8485 22.8277 58.6648 23.3542 58.392 23.8352C58.1231 24.3125 57.7765 24.7254 57.3523 25.0739C56.9318 25.4186 56.4508 25.6856 55.9091 25.875C55.3674 26.0644 54.7765 26.1591 54.1364 26.1591C53.1288 26.1591 52.2311 25.9205 51.4432 25.4432C50.6553 24.9621 50.0341 24.2746 49.5795 23.3807C49.1288 22.4867 48.9034 21.4205 48.9034 20.1818C48.9034 18.9394 49.1307 17.8731 49.5852 16.983C50.0398 16.089 50.661 15.4034 51.4489 14.9261C52.2367 14.4451 53.1326 14.2045 54.1364 14.2045C54.7538 14.2045 55.3295 14.2936 55.8636 14.4716C56.4015 14.6458 56.8845 14.9034 57.3125 15.2443C57.7405 15.5814 58.0947 15.9943 58.375 16.483C58.6553 16.9678 58.8447 17.5227 58.9432 18.1477ZM63.4474 26.1932C62.8944 26.1932 62.3944 26.0909 61.9474 25.8864C61.5005 25.678 61.1463 25.3769 60.8849 24.983C60.6274 24.589 60.4986 24.1061 60.4986 23.5341C60.4986 23.0417 60.5933 22.6364 60.7827 22.3182C60.9721 22 61.2277 21.7481 61.5497 21.5625C61.8717 21.3769 62.2315 21.2367 62.6293 21.142C63.027 21.0473 63.4323 20.9754 63.8452 20.9261C64.3679 20.8655 64.7921 20.8163 65.1179 20.7784C65.4437 20.7367 65.6804 20.6705 65.8281 20.5795C65.9759 20.4886 66.0497 20.3409 66.0497 20.1364V20.0966C66.0497 19.6004 65.9096 19.2159 65.6293 18.9432C65.3527 18.6705 64.9399 18.5341 64.3906 18.5341C63.8187 18.5341 63.3679 18.661 63.0384 18.9148C62.7126 19.1648 62.4872 19.4432 62.3622 19.75L60.7656 19.3864C60.955 18.8561 61.2315 18.428 61.5952 18.1023C61.9626 17.7727 62.3849 17.5341 62.8622 17.3864C63.3395 17.2348 63.8414 17.1591 64.3679 17.1591C64.7164 17.1591 65.0857 17.2008 65.4759 17.2841C65.8698 17.3636 66.2372 17.5114 66.5781 17.7273C66.9228 17.9432 67.205 18.2519 67.4247 18.6534C67.6444 19.0511 67.7543 19.5682 67.7543 20.2045V26H66.0952V24.8068H66.027C65.9171 25.0265 65.7524 25.2424 65.5327 25.4545C65.313 25.6667 65.0308 25.8428 64.6861 25.983C64.3414 26.1231 63.9285 26.1932 63.4474 26.1932ZM63.8168 24.8295C64.2865 24.8295 64.688 24.7367 65.0213 24.5511C65.3584 24.3655 65.6141 24.1231 65.7884 23.8239C65.9664 23.5208 66.0554 23.197 66.0554 22.8523V21.7273C65.9948 21.7879 65.8774 21.8447 65.7031 21.8977C65.5327 21.947 65.3376 21.9905 65.1179 22.0284C64.8982 22.0625 64.6842 22.0947 64.4759 22.125C64.2675 22.1515 64.0933 22.1742 63.9531 22.1932C63.6236 22.2348 63.3224 22.3049 63.0497 22.4034C62.7808 22.5019 62.5649 22.6439 62.402 22.8295C62.2429 23.0114 62.1634 23.2538 62.1634 23.5568C62.1634 23.9773 62.3187 24.2955 62.6293 24.5114C62.9399 24.7235 63.3357 24.8295 63.8168 24.8295ZM71.7159 14.3636V26H70.017V14.3636H71.7159ZM75.7003 14.3636V26H74.0014V14.3636H75.7003Z" fill="white"/>
<defs>
<filter id="filter0_d_598_1115" x="88.2891" y="33.4542" width="23.1211" height="23.9794" filterUnits="userSpaceOnUse" color-interpolation-filters="sRGB">
<feFlood flood-opacity="0" result="BackgroundImageFix"/>
<feColorMatrix in="SourceAlpha" type="matrix" values="0 0 0 0 0 0 0 0 0 0 0 0 0 0 0 0 0 0 127 0" result="hardAlpha"/>
<feOffset dy="1"/>
<feGaussianBlur stdDeviation="1"/>
<feComposite in2="hardAlpha" operator="out"/>
<feColorMatrix type="matrix" values="0 0 0 0 0 0 0 0 0 0 0 0 0 0 0 0 0 0 0.08 0"/>
<feBlend mode="normal" in2="BackgroundImageFix" result="effect1_dropShadow_598_1115"/>
<feBlend mode="normal" in="SourceGraphic" in2="effect1_dropShadow_598_1115" result="shape"/>
</filter>
</defs>
</svg>
