<svg width="187" height="152" viewBox="0 0 187 152" fill="none" xmlns="http://www.w3.org/2000/svg">
<path d="M0.0787268 11.9506C0.787233 17.7989 6.10256 21.9655 11.9508 21.257C17.7991 20.5485 21.9657 15.2331 21.2572 9.38486C20.5487 3.53658 15.2334 -0.630024 9.3851 0.0784826C3.53683 0.786989 -0.62978 6.10231 0.0787268 11.9506ZM186.032 137.572L164.729 128.655L167.659 151.563L186.032 137.572ZM10.668 10.6677L8.71827 11.1135C8.86188 11.7416 9.00068 12.3789 9.13513 13.025L11.0932 12.6176L13.0512 12.2102C12.9118 11.5401 12.7675 10.8772 12.6177 10.222L10.668 10.6677ZM11.8538 16.6058L9.88378 16.9509C10.1108 18.2468 10.3251 19.5713 10.53 20.9223L12.5074 20.6223L14.4848 20.3224C14.276 18.9462 14.0569 17.5912 13.8238 16.2607L11.8538 16.6058ZM13.079 24.6138L11.0971 24.8829C11.2752 26.1942 11.4477 27.5257 11.6176 28.8758L13.602 28.6262L15.5863 28.3765C15.4153 27.017 15.241 25.6721 15.0608 24.3447L13.079 24.6138ZM14.0973 32.6554L12.1118 32.8953C12.2724 34.2249 12.4327 35.5656 12.596 36.9229L14.5816 36.6841L16.5673 36.4452C16.4046 35.0923 16.2437 33.746 16.0829 32.4154L14.0973 32.6554ZM15.0695 40.6953L13.0846 40.9406C13.2497 42.2761 13.4195 43.6221 13.5962 44.9764L15.5794 44.7176L17.5626 44.4588C17.3873 43.1156 17.2187 41.7789 17.0544 40.45L15.0695 40.6953ZM16.124 48.7402L14.1435 49.0191C14.3316 50.355 14.5286 51.6976 14.7365 53.045L16.7131 52.74L18.6897 52.4349C18.4848 51.107 18.2904 49.782 18.1044 48.4614L16.124 48.7402ZM17.3629 56.7406L15.3916 57.0778C15.6209 58.4179 15.863 59.7613 16.1201 61.1064L18.0845 60.731L20.049 60.3555C19.7971 59.0378 19.5596 57.72 19.3343 56.4033L17.3629 56.7406ZM18.8877 64.6973L16.9322 65.1167C17.2183 66.4506 17.5211 67.7847 17.8427 69.1176L19.7869 68.6484L21.7311 68.1793C21.418 66.8816 21.1227 65.5806 20.8433 64.2779L18.8877 64.6973ZM20.7926 72.5737L18.8626 73.0982C19.2214 74.4185 19.6009 75.736 20.003 77.0492L21.9153 76.4637L23.8277 75.8781C23.4386 74.6074 23.0709 73.3306 22.7226 72.0491L20.7926 72.5737ZM23.1678 80.3164L21.277 80.9683C21.7246 82.2664 22.1967 83.5588 22.6953 84.844L24.5599 84.1206L26.4245 83.3972C25.945 82.1613 25.4903 80.9166 25.0586 79.6645L23.1678 80.3164ZM26.1003 87.8638L24.2671 88.6633C24.8173 89.925 25.3957 91.1782 26.0044 92.4212L27.8006 91.5416L29.5968 90.6621C29.0149 89.4737 28.4611 88.2741 27.9336 87.0644L26.1003 87.8638ZM29.6651 95.1356L27.9121 96.0983C28.5745 97.3044 29.2682 98.499 29.9952 99.6808L31.6986 98.6328L33.4021 97.5848C32.7105 96.4606 32.0497 95.3229 31.4182 94.1729L29.6651 95.1356ZM33.9132 102.034L32.266 103.168C33.0449 104.3 33.8576 105.417 34.7056 106.519L36.2905 105.299L37.8755 104.079C37.0712 103.034 36.3001 101.974 35.5604 100.9L33.9132 102.034ZM38.845 108.439L37.3283 109.743C38.2267 110.788 39.1603 111.817 40.1308 112.828L41.574 111.444L43.0172 110.059C42.0976 109.101 41.213 108.126 40.3617 107.135L38.845 108.439ZM44.442 114.275L43.0758 115.736C44.083 116.678 45.1258 117.602 46.2056 118.508L47.491 116.976L48.7763 115.444C47.7518 114.584 46.7629 113.708 45.8082 112.815L44.442 114.275ZM50.639 119.479L49.4351 121.077C50.5291 121.901 51.6575 122.708 52.8215 123.496L53.9426 121.84L55.0638 120.183C53.9557 119.433 52.8825 118.666 51.8429 117.882L50.639 119.479ZM57.3419 124.021L56.3025 125.73C57.4656 126.438 58.6612 127.127 59.8902 127.799L60.8491 126.044L61.808 124.289C60.6328 123.647 59.4909 122.988 58.3813 122.313L57.3419 124.021ZM64.4446 127.906L63.5638 129.701C64.7812 130.298 66.0289 130.879 67.3077 131.441L68.1131 129.611L68.9186 127.78C67.6897 127.239 66.4923 126.683 65.3253 126.11L64.4446 127.906ZM71.847 131.166L71.1136 133.027C72.3762 133.525 73.667 134.006 74.9868 134.471L75.6513 132.585L76.3158 130.698C75.0414 130.249 73.7966 129.785 72.5804 129.306L71.847 131.166ZM79.4686 133.856L78.8689 135.764C80.1741 136.174 81.5059 136.569 82.8649 136.948L83.4023 135.022L83.9397 133.095C82.6217 132.728 81.3315 132.345 80.0684 131.948L79.4686 133.856ZM87.2551 136.035L86.7748 137.976C88.1026 138.304 89.4549 138.619 90.8323 138.918L91.2571 136.964L91.6819 135.009C90.3409 134.718 89.0255 134.412 87.7353 134.093L87.2551 136.035ZM95.1778 137.762L94.8038 139.727C96.1253 139.978 97.4687 140.217 98.8345 140.442L99.1601 138.469L99.4857 136.496C98.1516 136.275 96.8404 136.043 95.5517 135.797L95.1778 137.762ZM103.23 139.091L102.95 141.071C104.256 141.256 105.581 141.428 106.926 141.589L107.163 139.603L107.401 137.617C106.083 137.46 104.786 137.291 103.509 137.111L103.23 139.091ZM111.217 140.046L111.02 142.036C112.369 142.169 113.737 142.292 115.125 142.402L115.283 140.408L115.442 138.415C114.08 138.306 112.737 138.186 111.414 138.055L111.217 140.046ZM119.253 140.689L119.13 142.685C120.482 142.769 121.853 142.842 123.241 142.905L123.331 140.907L123.421 138.909C122.055 138.847 120.707 138.775 119.377 138.693L119.253 140.689ZM127.421 141.057L127.364 143.056C128.681 143.094 130.014 143.123 131.362 143.142L131.39 141.142L131.419 139.142C130.089 139.123 128.776 139.095 127.479 139.058L127.421 141.057ZM135.455 141.17L135.456 143.17C136.834 143.17 138.229 143.16 139.64 143.14L139.612 141.14L139.584 139.14C138.191 139.16 136.815 139.17 135.455 139.17L135.455 141.17ZM143.552 141.06L143.605 143.06C144.94 143.024 146.29 142.981 147.654 142.928L147.577 140.93L147.5 138.931C146.152 138.983 144.818 139.026 143.499 139.061L143.552 141.06ZM151.688 140.747L151.788 142.745C153.133 142.677 154.491 142.601 155.863 142.517L155.741 140.521L155.619 138.525C154.261 138.608 152.918 138.683 151.588 138.75L151.688 140.747ZM159.706 140.258L159.849 142.253C161.19 142.157 162.544 142.053 163.911 141.942L163.748 139.948L163.586 137.955C162.232 138.065 160.892 138.168 159.564 138.263L159.706 140.258ZM167.867 139.592L168.049 141.584C169.378 141.462 170.718 141.334 172.07 141.198L171.871 139.208L171.671 137.218C170.33 137.353 169.002 137.48 167.685 137.6L167.867 139.592ZM175.831 138.793L176.048 140.781C177.385 140.635 178.733 140.482 180.093 140.322L179.86 138.336L179.626 136.35C178.277 136.508 176.94 136.66 175.614 136.805L175.831 138.793Z" fill="#9747FF"/>
</svg>
