<svg width="176" height="193" viewBox="0 0 176 193" fill="none" xmlns="http://www.w3.org/2000/svg">
<path d="M175.167 10.6667C175.167 16.5578 170.391 21.3334 164.5 21.3334C158.609 21.3334 153.833 16.5578 153.833 10.6667C153.833 4.77571 158.609 8.10623e-05 164.5 8.10623e-05C170.391 8.10623e-05 175.167 4.77571 175.167 10.6667ZM0 181.167L20.0712 169.744L19.928 192.838L0 181.167ZM164.5 10.6667L166.489 10.8748C166.424 11.4997 166.363 12.1364 166.307 12.7845L164.314 12.6112L162.322 12.4378C162.38 11.7683 162.443 11.1085 162.511 10.4587L164.5 10.6667ZM164.024 16.6167L166.02 16.7359C165.943 18.0243 165.878 19.3488 165.822 20.7074L163.824 20.6247L161.825 20.5421C161.882 19.1636 161.949 17.8144 162.027 16.4974L164.024 16.6167ZM163.685 24.5939L165.684 24.653C165.645 25.9567 165.612 27.2863 165.581 28.6404L163.582 28.5952L161.582 28.55C161.613 27.1895 161.647 25.8503 161.686 24.5347L163.685 24.5939ZM163.498 32.6213L165.498 32.6604C165.472 33.9633 165.447 35.2899 165.42 36.6299L163.421 36.5902L161.421 36.5505C161.448 35.2099 161.473 33.8895 161.498 32.5821L163.498 32.6213ZM163.336 40.5951L165.336 40.6408C165.305 41.9647 165.272 43.3037 165.234 44.6562L163.234 44.5996L161.235 44.5431C161.273 43.1994 161.307 41.8678 161.337 40.5494L163.336 40.5951ZM163.107 48.5842L165.106 48.6559C165.058 49.9887 165.004 51.3331 164.943 52.6876L162.945 52.5967L160.947 52.5057C161.008 51.1654 161.061 49.8339 161.109 48.5125L163.107 48.5842ZM162.741 56.5759L164.738 56.6897C164.662 58.0224 164.577 59.3635 164.483 60.712L162.488 60.5717L160.492 60.4314C160.586 59.1018 160.67 57.7784 160.745 56.462L162.741 56.5759ZM162.178 64.5577L164.17 64.728C164.057 66.0597 163.932 67.3973 163.795 68.7398L161.805 68.5363L159.815 68.3329C159.95 67.0137 160.073 65.6983 160.185 64.3875L162.178 64.5577ZM161.361 72.5168L163.347 72.757C163.186 74.086 163.012 75.4188 162.823 76.7542L160.843 76.4744L158.863 76.1945C159.047 74.8867 159.218 73.5805 159.376 72.2767L161.361 72.5168ZM160.24 80.4354L162.213 80.7584C161.997 82.0825 161.764 83.4083 161.515 84.7348L159.55 84.3656L157.584 83.9964C157.827 82.7019 158.054 81.4068 158.266 80.1123L160.24 80.4354ZM158.762 88.2898L160.717 88.7084C160.436 90.0247 160.136 91.3406 159.817 92.6553L157.874 92.1841L155.93 91.713C156.24 90.4344 156.531 89.1535 156.806 87.8711L158.762 88.2898ZM156.876 96.0573L158.806 96.5839C158.451 97.8857 158.075 99.1853 157.679 100.482L155.766 99.8968L153.854 99.3118C154.238 98.0552 154.602 96.7945 154.947 95.5306L156.876 96.0573ZM154.536 103.7L156.429 104.346C155.992 105.626 155.533 106.901 155.051 108.172L153.181 107.462L151.311 106.753C151.777 105.525 152.221 104.292 152.644 103.054L154.536 103.7ZM151.699 111.171L153.543 111.946C153.018 113.195 152.469 114.438 151.894 115.674L150.081 114.831L148.267 113.989C148.82 112.798 149.349 111.6 149.855 110.396L151.699 111.171ZM148.331 118.417L150.112 119.328C149.494 120.536 148.85 121.737 148.179 122.928L146.436 121.948L144.693 120.967C145.337 119.822 145.956 118.668 146.551 117.506L148.331 118.417ZM144.413 125.38L146.115 126.43C145.401 127.586 144.661 128.733 143.892 129.87L142.235 128.75L140.578 127.63C141.315 126.54 142.026 125.439 142.711 124.329L144.413 125.38ZM139.94 131.998L141.548 133.187C140.741 134.28 139.905 135.364 139.04 136.436L137.484 135.18L135.927 133.925C136.755 132.897 137.556 131.859 138.331 130.81L139.94 131.998ZM134.927 138.217L136.43 139.537C135.533 140.559 134.607 141.569 133.653 142.566L132.208 141.184L130.762 139.801C131.677 138.845 132.565 137.877 133.425 136.897L134.927 138.217ZM129.409 143.991L130.796 145.432C129.817 146.373 128.812 147.302 127.777 148.218L126.451 146.721L125.125 145.224C126.118 144.344 127.084 143.453 128.022 142.55L129.409 143.991ZM123.431 149.289L124.696 150.838C123.649 151.693 122.574 152.536 121.472 153.366L120.269 151.768L119.067 150.17C120.127 149.372 121.16 148.562 122.166 147.74L123.431 149.289ZM117.047 154.099L118.188 155.741C117.086 156.508 115.957 157.262 114.802 158.003L113.722 156.319L112.642 154.636C113.756 153.922 114.843 153.195 115.905 152.457L117.047 154.099ZM110.308 158.425L111.328 160.145C110.184 160.823 109.017 161.489 107.824 162.142L106.863 160.388L105.902 158.634C107.056 158.002 108.184 157.359 109.289 156.704L110.308 158.425ZM103.271 162.279L104.173 164.064C102.999 164.657 101.803 165.239 100.583 165.81L99.7361 163.998L98.8889 162.186C100.072 161.633 101.231 161.069 102.368 160.494L103.271 162.279ZM96.0757 165.643L96.8684 167.479C95.6373 168.011 94.3841 168.531 93.1085 169.039L92.3683 167.181L91.6281 165.323C92.8689 164.829 94.087 164.323 95.2829 163.807L96.0757 165.643ZM88.6787 168.594L89.3691 170.471C88.1017 170.937 86.8133 171.392 85.5035 171.835L84.8622 169.941L84.2208 168.046C85.4982 167.614 86.7539 167.171 87.9883 166.717L88.6787 168.594ZM81.0868 171.168L81.6821 173.077C80.4193 173.471 79.1377 173.854 77.8367 174.227L77.2856 172.305L76.7345 170.382C78.0063 170.017 79.2585 169.643 80.4915 169.258L81.0868 171.168ZM73.3681 173.38L73.876 175.314C72.602 175.649 71.3103 175.974 70.0007 176.289L69.533 174.344L69.0654 172.399C70.3485 172.091 71.6133 171.773 72.8602 171.445L73.3681 173.38ZM65.6681 175.233L66.0971 177.186C64.7786 177.476 63.4426 177.756 62.0889 178.026L61.6976 176.064L61.3063 174.103C62.6351 173.838 63.946 173.563 65.2391 173.279L65.6681 175.233ZM57.7875 176.808L58.1434 178.776C56.8516 179.009 55.5442 179.234 54.2211 179.45L53.8987 177.477L53.5763 175.503C54.8773 175.29 56.1623 175.069 57.4315 174.84L57.7875 176.808ZM49.9149 178.093L50.2046 180.072C48.8702 180.267 47.5203 180.454 46.1549 180.632L45.8967 178.649L45.6385 176.665C46.9832 176.49 48.312 176.307 49.6252 176.114L49.9149 178.093ZM42.016 179.125L42.2452 181.112C40.9279 181.264 39.5966 181.408 38.251 181.543L38.0501 179.553L37.8493 177.564C39.1762 177.43 40.4887 177.288 41.7868 177.138L42.016 179.125ZM33.9981 179.934L34.1713 181.926C32.8539 182.041 31.5232 182.148 30.1792 182.247L30.0318 180.253L29.8845 178.258C31.2115 178.16 32.5249 178.054 33.8249 177.941L33.9981 179.934ZM26.1075 180.518L26.2303 182.514C24.9013 182.596 23.5596 182.67 22.2051 182.737L22.1064 180.74L22.0076 178.742C23.3463 178.676 24.6719 178.602 25.9847 178.522L26.1075 180.518ZM18.0276 180.917L18.103 182.916C16.7893 182.965 15.4638 183.008 14.1265 183.044L14.0729 181.045L14.0193 179.045C15.3423 179.01 16.6532 178.968 17.9523 178.919L18.0276 180.917ZM10.1387 181.13L10.1715 183.129C8.84177 183.151 7.50063 183.166 6.14795 183.175L6.13554 181.175L6.12312 179.175C7.46237 179.166 8.78993 179.151 10.1059 179.13L10.1387 181.13Z" fill="#9747FF"/>
</svg>
