<svg width="154" height="23" viewBox="0 0 154 23" fill="none" xmlns="http://www.w3.org/2000/svg">
<path d="M12.0417 0.72432L15.1071 7.28557C15.2403 7.42519 15.3736 7.56481 15.5069 7.56481L22.3039 8.54201C22.7038 8.54201 22.8371 9.10039 22.5705 9.37959L17.6393 14.4052C17.506 14.5448 17.506 14.6844 17.506 14.824L18.7055 21.9437C18.8388 22.3625 18.3057 22.6417 18.0391 22.5021L11.7752 19.2912C11.6419 19.2912 11.5087 19.2912 11.3754 19.2912L5.24472 22.6417C4.84488 22.7813 4.44506 22.5021 4.57834 22.0833L5.77781 14.9636C5.77781 14.824 5.77781 14.6844 5.64456 14.5448L0.58008 9.37959C0.313532 9.10039 0.446807 8.68158 0.846634 8.68158L7.64368 7.70438C7.77693 7.70438 7.91022 7.56481 8.04347 7.42519L11.1088 0.72432C11.3754 0.305516 11.9085 0.305516 12.0417 0.72432Z" fill="#FFC107"/>
<path d="M44.7566 0.72432L47.8219 7.28557C47.9552 7.42519 48.0885 7.56481 48.2217 7.56481L55.0188 8.54201C55.4186 8.54201 55.5519 9.10039 55.2853 9.37959L50.3542 14.4052C50.2209 14.5448 50.2209 14.6844 50.2209 14.824L51.4204 21.9437C51.5536 22.3625 51.0205 22.6417 50.754 22.5021L44.49 19.2912C44.3568 19.2912 44.2235 19.2912 44.0902 19.2912L37.9596 22.6417C37.5597 22.7813 37.1599 22.5021 37.2932 22.0833L38.4927 14.9636C38.4927 14.824 38.4927 14.6844 38.3594 14.5448L33.2949 9.37959C33.0284 9.10039 33.1617 8.68158 33.5615 8.68158L40.3585 7.70438C40.4918 7.70438 40.6251 7.56481 40.7583 7.42519L43.8237 0.72432C44.0902 0.305516 44.6233 0.305516 44.7566 0.72432Z" fill="#FFC107"/>
<path d="M77.4714 0.72432L80.5368 7.28557C80.67 7.42519 80.8033 7.56481 80.9366 7.56481L87.7336 8.54201C88.1335 8.54201 88.2668 9.10039 88.0002 9.37959L83.069 14.4052C82.9357 14.5448 82.9357 14.6844 82.9357 14.824L84.1352 21.9437C84.2685 22.3625 83.7354 22.6417 83.4688 22.5021L77.2049 19.2912C77.0716 19.2912 76.9383 19.2912 76.8051 19.2912L70.6744 22.6417C70.2746 22.7813 69.8747 22.5021 70.008 22.0833L71.2075 14.9636C71.2075 14.824 71.2075 14.6844 71.0743 14.5448L66.0098 9.37959C65.7432 9.10039 65.8765 8.68158 66.2763 8.68158L73.0734 7.70438C73.2066 7.70438 73.3399 7.56481 73.4732 7.42519L76.5385 0.72432C76.8051 0.305516 77.3382 0.305516 77.4714 0.72432Z" fill="#FFC107"/>
<path d="M110.186 0.72432L113.252 7.28557C113.385 7.42519 113.518 7.56481 113.651 7.56481L120.448 8.54201C120.848 8.54201 120.982 9.10039 120.715 9.37959L115.784 14.4052C115.651 14.5448 115.651 14.6844 115.651 14.824L116.85 21.9437C116.983 22.3625 116.45 22.6417 116.184 22.5021L109.92 19.2912C109.786 19.2912 109.653 19.2912 109.52 19.2912L103.389 22.6417C102.989 22.7813 102.59 22.5021 102.723 22.0833L103.922 14.9636C103.922 14.824 103.922 14.6844 103.789 14.5448L98.7246 9.37959C98.4581 9.10039 98.5913 8.68158 98.9912 8.68158L105.788 7.70438C105.921 7.70438 106.055 7.56481 106.188 7.42519L109.253 0.72432C109.52 0.305516 110.053 0.305516 110.186 0.72432Z" fill="#FFC107"/>
<path d="M142.897 0.72432L145.963 7.28557C146.096 7.42519 146.229 7.56481 146.362 7.56481L153.159 8.54201C153.559 8.54201 153.693 9.10039 153.426 9.37959L148.495 14.4052C148.362 14.5448 148.362 14.6844 148.362 14.824L149.561 21.9437C149.694 22.3625 149.161 22.6417 148.895 22.5021L142.631 19.2912C142.497 19.2912 142.364 19.2912 142.231 19.2912L136.1 22.6417C135.7 22.7813 135.301 22.5021 135.434 22.0833L136.633 14.9636C136.633 14.824 136.633 14.6844 136.5 14.5448L131.436 9.37959C131.169 9.10039 131.302 8.68158 131.702 8.68158L138.499 7.70438C138.632 7.70438 138.766 7.56481 138.899 7.42519L141.964 0.72432C142.231 0.305516 142.764 0.305516 142.897 0.72432Z" fill="#FFC107"/>
</svg>
